<?xml version="1.0" encoding="UTF-8"?>
<!DOCTYPE svg PUBLIC "-//W3C//DTD SVG 1.1//EN" "http://www.w3.org/Graphics/SVG/1.1/DTD/svg11.dtd">
<!-- Creator: CorelDRAW (Versão de avaliação) -->
<svg xmlns="http://www.w3.org/2000/svg" xml:space="preserve" width="118.739mm" height="91.2087mm" version="1.1" style="shape-rendering:geometricPrecision; text-rendering:geometricPrecision; image-rendering:optimizeQuality; fill-rule:evenodd; clip-rule:evenodd"
viewBox="0 0 1721.85 1322.63"
 xmlns:xlink="http://www.w3.org/1999/xlink"
 xmlns:xodm="http://www.corel.com/coreldraw/odm/2003">
 <defs>
  <style type="text/css">
   <![CDATA[
    .fil0 {fill:none;fill-rule:nonzero}
    .fil15 {fill:#0C0A78;fill-rule:nonzero}
    .fil3 {fill:#1848D9;fill-rule:nonzero}
    .fil11 {fill:#435373;fill-rule:nonzero}
    .fil14 {fill:#456EBF;fill-rule:nonzero}
    .fil12 {fill:#4B75F2;fill-rule:nonzero}
    .fil1 {fill:#B6C5F2;fill-rule:nonzero}
    .fil4 {fill:white;fill-rule:nonzero}
    .fil5 {fill:#06033E;fill-rule:nonzero;fill-opacity:0.400000}
    .fil7 {fill:#435373;fill-rule:nonzero;fill-opacity:0.400000}
    .fil8 {fill:#06033E;fill-rule:nonzero;fill-opacity:0.501961}
    .fil10 {fill:#4B75F2;fill-rule:nonzero;fill-opacity:0.501961}
    .fil17 {fill:white;fill-rule:nonzero;fill-opacity:0.501961}
    .fil2 {fill:#020230;fill-rule:nonzero;fill-opacity:0.600000}
    .fil6 {fill:url(#id0);fill-rule:nonzero}
    .fil16 {fill:url(#id1);fill-rule:nonzero}
    .fil13 {fill:url(#id2);fill-rule:nonzero}
    .fil9 {fill:url(#id3);fill-rule:nonzero}
   ]]>
  </style>
  <linearGradient id="id0" gradientUnits="userSpaceOnUse" x1="750.75" y1="503.82" x2="1433.5" y2="503.82">
   <stop offset="0" style="stop-opacity:1; stop-color:#3919BB"/>
   <stop offset="1" style="stop-opacity:1; stop-color:#6507FA"/>
  </linearGradient>
  <linearGradient id="id1" gradientUnits="userSpaceOnUse" x1="414.93" y1="319.63" x2="449.45" y2="319.63">
   <stop offset="0" style="stop-opacity:1; stop-color:#131060"/>
   <stop offset="0.180392" style="stop-opacity:1; stop-color:#141062"/>
   <stop offset="0.278431" style="stop-opacity:1; stop-color:#19106A"/>
   <stop offset="0.360784" style="stop-opacity:1; stop-color:#221078"/>
   <stop offset="0.419608" style="stop-opacity:1; stop-color:#2E0F8B"/>
   <stop offset="0.478431" style="stop-opacity:1; stop-color:#3E0FA3"/>
   <stop offset="0.541176" style="stop-opacity:1; stop-color:#510EC2"/>
   <stop offset="0.580392" style="stop-opacity:1; stop-color:#680DE5"/>
   <stop offset="0.611765" style="stop-opacity:1; stop-color:#740DF8"/>
   <stop offset="0.619608" style="stop-opacity:1; stop-color:#7A14F0"/>
   <stop offset="0.678431" style="stop-opacity:1; stop-color:#9B3CC3"/>
   <stop offset="0.74902" style="stop-opacity:1; stop-color:#B75D9D"/>
   <stop offset="0.811765" style="stop-opacity:1; stop-color:#CC7680"/>
   <stop offset="0.870588" style="stop-opacity:1; stop-color:#DC886C"/>
   <stop offset="0.941176" style="stop-opacity:1; stop-color:#E5935F"/>
   <stop offset="1" style="stop-opacity:1; stop-color:#E8975B"/>
  </linearGradient>
  <linearGradient id="id2" gradientUnits="userSpaceOnUse" x1="338.19" y1="269.75" x2="522.36" y2="269.75">
   <stop offset="0" style="stop-opacity:1; stop-color:#4F1FEC"/>
   <stop offset="1" style="stop-opacity:1; stop-color:#A92FFB"/>
  </linearGradient>
  <radialGradient id="id3" gradientUnits="userSpaceOnUse" gradientTransform="matrix(5.2721 -0 -0 5.26404 -2631 -445)" cx="615.76" cy="104.45" r="251.03" fx="615.76" fy="104.45">
   <stop offset="0" style="stop-opacity:1; stop-color:#E39A65"/>
   <stop offset="0.470588" style="stop-opacity:1; stop-color:#A92FFB"/>
   <stop offset="0.588235" style="stop-opacity:1; stop-color:#891CFB"/>
   <stop offset="0.729412" style="stop-opacity:1; stop-color:#6507FA"/>
   <stop offset="1" style="stop-opacity:1; stop-color:#3919BB"/>
  </radialGradient>
 </defs>
 <g id="Camada_x0020_1">
  <metadata id="CorelCorpID_0Corel-Layer"/>
  <g id="_2306789137008">
   <rect class="fil0" x="0" y="0" width="1721.85" height="1322.63"/>
   <path class="fil1" d="M1640.25 1085.08c-4.62,0 -9.24,-1.19 -13.36,-3.57l-45.03 -26c-2.61,-1.51 -4.17,-4.21 -4.17,-7.22 0,-3.01 1.56,-5.71 4.17,-7.22l45.03 -26c8.23,-4.75 18.47,-4.76 26.71,0l45.03 26c2.61,1.51 4.17,4.21 4.17,7.22 0,3.02 -1.56,5.72 -4.17,7.22l-45.03 26c-4.12,2.38 -8.74,3.57 -13.36,3.57zm0 -66.44c-3.39,0 -6.77,0.87 -9.79,2.61l-45.03 26c-0.52,0.3 -0.6,0.78 -0.6,1.04 0,0.26 0.08,0.74 0.6,1.04l45.03 26c0,0 0,0 0,0 6.03,3.48 13.53,3.48 19.58,0l45.03 -26c0.52,-0.3 0.6,-0.78 0.6,-1.04 0,-0.25 -0.08,-0.73 -0.6,-1.04l-45.03 -26c-3.02,-1.75 -6.41,-2.61 -9.79,-2.61z"/>
   <path class="fil1" d="M1511.46 937.55c-7.5,0 -15.01,-1.93 -21.7,-5.8l-77.5 -44.74c-3.69,-2.13 -5.89,-5.94 -5.89,-10.2 0,-4.26 2.2,-8.07 5.89,-10.2l77.49 -44.74c13.37,-7.73 30.01,-7.73 43.4,0l77.5 44.74c3.69,2.13 5.89,5.94 5.89,10.19 0,4.26 -2.2,8.07 -5.89,10.21l-77.5 44.74c-6.69,3.87 -14.2,5.8 -21.7,5.8zm-18.13 -11.98c11.19,6.45 25.07,6.45 36.26,0l77.5 -44.74c2.09,-1.21 2.31,-3.21 2.31,-4.02 0,-0.81 -0.23,-2.8 -2.31,-4.02l-77.5 -44.74c-11.19,-6.45 -25.07,-6.45 -36.26,0l-77.49 44.74c-2.09,1.21 -2.32,3.21 -2.32,4.02 0,0.81 0.23,2.81 2.32,4.02l77.49 44.74z"/>
   <path class="fil1" d="M125.54 1007.96c-7.5,0 -15.01,-1.93 -21.7,-5.8l-77.5 -44.74c-3.69,-2.13 -5.89,-5.95 -5.89,-10.21 0,-4.25 2.2,-8.07 5.89,-10.19l77.5 -44.74c13.38,-7.73 30.01,-7.73 43.4,0l77.5 44.74c3.69,2.13 5.89,5.94 5.89,10.2 0,4.26 -2.2,8.07 -5.89,10.2l-77.49 44.74c-6.69,3.86 -14.2,5.8 -21.7,5.8zm-0 -114.33c-6.27,0 -12.54,1.62 -18.13,4.84l-77.5 44.74c-2.09,1.21 -2.32,3.21 -2.32,4.02 0,0.81 0.23,2.81 2.32,4.02l77.5 44.74 0 0c11.19,6.45 25.07,6.45 36.26,0l77.49 -44.74c2.1,-1.21 2.32,-3.21 2.32,-4.02 0,-0.81 -0.23,-2.8 -2.32,-4.02l-77.5 -44.74c-5.59,-3.23 -11.86,-4.84 -18.13,-4.84z"/>
   <path class="fil2" d="M910.33 1203.16l-554.14 -319.94c-8.08,-4.66 -7.06,-12.81 2.26,-18.19l355.66 -205.34c9.33,-5.38 23.44,-5.97 31.51,-1.31l554.14 319.94c8.08,4.67 7.06,12.81 -2.26,18.19l-355.66 205.34c-9.32,5.39 -23.43,5.97 -31.51,1.3z"/>
   <path class="fil1" d="M923.02 1260.92c-6.48,0 -12.69,-1.35 -17.44,-4.09l0 0 -632.44 -365.14c-5.17,-2.98 -8.01,-7.28 -8.01,-12.11 0,-5.54 3.86,-10.95 10.59,-14.84l431.11 -252.58c11.82,-6.83 29.19,-7.49 39.56,-1.5l632.44 365.14c5.17,2.98 8.01,7.28 8.01,12.11 0,5.54 -3.86,10.95 -10.59,14.84l-431.11 252.58c-6.41,3.7 -14.45,5.59 -22.12,5.59zm-193.98 -647.18c-6.48,0 -13.36,1.56 -18.61,4.59l-431.11 252.58c-4.42,2.55 -7.04,5.79 -7.04,8.67 0,2.78 2.41,4.76 4.44,5.93l632.44 365.14c0,0 0,0 0,0 8.07,4.67 22.91,3.99 32.39,-1.49l431.11 -252.58c4.42,-2.55 7.04,-5.79 7.04,-8.67 0,-2.78 -2.41,-4.75 -4.44,-5.92l-632.44 -365.14c-3.61,-2.08 -8.56,-3.1 -13.78,-3.1z"/>
   <path class="fil1" d="M1446.97 441.95l-551.96 -318.68c-3.79,-2.19 -7.75,-2.64 -11.26,-1.62l0 0 -0 0c-0.02,0 -0.03,0.01 -0.05,0.02l-10.22 3.56 3.6 0.85c-1.44,1.71 -2.61,3.83 -3.37,6.31l-124.83 405.28c-3.09,10.05 1.44,22.26 10.12,27.27l551.96 318.68c1.34,0.77 2.7,1.31 4.06,1.66l-1.37 2.98 9.77 -3.43 -0.02 -0.01c4,-1.59 7.29,-5.16 8.88,-10.32l124.83 -405.28c3.08,-10.05 -1.45,-22.26 -10.13,-27.27z"/>
   <path class="fil1" d="M1291.19 898.76l0.2 0.23 -545.2 -314.77c-8.02,-4.63 -22.03,-4.05 -31.29,1.3l-352.25 203.37 -11.74 -4.49 3.3 16.48 0.02 -0.01c0.44,2.48 2.17,4.8 5.29,6.6l550.24 317.68c8.02,4.63 22.03,4.05 31.29,-1.3l353.15 -203.89c4.36,-2.52 6.86,-5.64 7.49,-8.72l0.02 0.02 3.37 -16.04 -13.86 3.52z"/>
   <path class="fil3" d="M910.33 1110.65l-554.14 -319.94c-8.08,-4.66 -7.06,-12.81 2.26,-18.19l355.66 -205.34c9.33,-5.38 23.44,-5.97 31.51,-1.31l554.14 319.94c8.08,4.66 7.06,12.81 -2.26,18.19l-355.66 205.34c-9.32,5.38 -23.43,5.97 -31.51,1.3z"/>
   <path class="fil4" d="M1297.49 899.7l-355.66 205.34c-9.33,5.39 -23.44,5.97 -31.51,1.31l-554.14 -319.94c-2.75,-1.59 -4.37,-3.59 -5.04,-5.75 -1.07,3.71 0.49,7.44 5.04,10.06l554.15 319.94c8.08,4.66 22.18,4.08 31.51,-1.31l355.66 -205.34c6.15,-3.55 8.6,-8.29 7.3,-12.45 -0.84,2.89 -3.22,5.78 -7.31,8.13z"/>
   <path class="fil5" d="M620.5 738.8l-18.71 -10.8c-1.5,-0.87 -1.31,-2.38 0.42,-3.38l22.08 -12.75c1.73,-1 4.36,-1.11 5.86,-0.24l18.71 10.8c1.5,0.87 1.31,2.38 -0.42,3.38l-22.08 12.75c-1.73,1 -4.36,1.11 -5.86,0.24z"/>
   <path class="fil5" d="M649.39 755.48l-18.71 -10.8c-1.5,-0.87 -1.31,-2.38 0.42,-3.38l22.08 -12.75c1.73,-1 4.36,-1.11 5.86,-0.24l18.71 10.8c1.5,0.87 1.31,2.38 -0.42,3.38l-22.08 12.75c-1.73,1 -4.36,1.11 -5.86,0.24z"/>
   <path class="fil5" d="M678.29 772.16l-18.71 -10.8c-1.5,-0.87 -1.31,-2.38 0.42,-3.38l22.08 -12.75c1.73,-1 4.36,-1.11 5.86,-0.24l18.71 10.8c1.5,0.87 1.31,2.38 -0.42,3.38l-22.08 12.75c-1.73,1 -4.36,1.11 -5.86,0.24z"/>
   <path class="fil5" d="M718.25 758.38l-18.71 -10.8c-1.5,-0.87 -1.31,-2.38 0.42,-3.38l18.54 -10.7c1.73,-1 4.36,-1.11 5.86,-0.24l18.71 10.8c1.5,0.87 1.31,2.38 -0.42,3.38l-18.54 10.7c-1.73,1 -4.36,1.11 -5.86,0.24z"/>
   <path class="fil5" d="M747.14 775.07l-18.71 -10.8c-1.5,-0.87 -1.31,-2.38 0.42,-3.38l18.54 -10.7c1.73,-1 4.36,-1.11 5.86,-0.24l18.71 10.8c1.5,0.87 1.31,2.38 -0.42,3.38l-18.54 10.7c-1.73,1 -4.36,1.11 -5.86,0.24z"/>
   <path class="fil5" d="M776.03 791.74l-18.71 -10.8c-1.5,-0.87 -1.31,-2.38 0.42,-3.38l18.54 -10.7c1.73,-1 4.36,-1.11 5.86,-0.24l18.71 10.8c1.5,0.87 1.31,2.38 -0.42,3.38l-18.54 10.7c-1.73,1 -4.35,1.11 -5.86,0.24z"/>
   <path class="fil5" d="M804.92 808.43l-18.71 -10.8c-1.5,-0.87 -1.31,-2.38 0.42,-3.38l18.54 -10.7c1.73,-1 4.36,-1.11 5.86,-0.24l18.71 10.8c1.5,0.87 1.31,2.38 -0.42,3.38l-18.54 10.7c-1.73,1 -4.35,1.11 -5.86,0.24z"/>
   <path class="fil5" d="M833.81 825.11l-18.71 -10.8c-1.5,-0.87 -1.31,-2.38 0.42,-3.38l18.54 -10.7c1.73,-1 4.36,-1.11 5.86,-0.24l18.71 10.8c1.5,0.87 1.31,2.38 -0.42,3.38l-18.54 10.7c-1.74,1 -4.36,1.11 -5.86,0.24z"/>
   <path class="fil5" d="M862.71 841.79l-18.71 -10.8c-1.5,-0.87 -1.31,-2.38 0.42,-3.38l18.54 -10.7c1.73,-1 4.36,-1.11 5.86,-0.24l18.71 10.8c1.5,0.87 1.31,2.38 -0.42,3.38l-18.54 10.7c-1.73,1 -4.36,1.11 -5.86,0.24z"/>
   <path class="fil5" d="M891.6 858.47l-18.71 -10.8c-1.5,-0.87 -1.31,-2.38 0.42,-3.38l18.54 -10.7c1.73,-1 4.36,-1.11 5.86,-0.24l18.71 10.8c1.5,0.87 1.31,2.38 -0.42,3.38l-18.54 10.7c-1.73,1 -4.35,1.11 -5.85,0.24z"/>
   <path class="fil5" d="M920.49 875.15l-18.71 -10.8c-1.5,-0.87 -1.31,-2.38 0.42,-3.38l18.54 -10.7c1.73,-1 4.36,-1.11 5.86,-0.24l18.71 10.8c1.5,0.87 1.31,2.38 -0.42,3.38l-18.54 10.7c-1.73,1 -4.35,1.11 -5.86,0.24z"/>
   <path class="fil5" d="M949.38 891.83l-18.71 -10.8c-1.5,-0.87 -1.31,-2.38 0.42,-3.38l18.54 -10.7c1.73,-1 4.36,-1.11 5.86,-0.24l18.71 10.8c1.5,0.87 1.31,2.38 -0.42,3.38l-18.54 10.7c-1.74,1 -4.36,1.11 -5.86,0.24z"/>
   <path class="fil5" d="M978.27 908.51l-18.71 -10.8c-1.5,-0.87 -1.31,-2.38 0.42,-3.38l18.54 -10.7c1.73,-1 4.36,-1.11 5.86,-0.24l18.71 10.8c1.5,0.87 1.31,2.38 -0.42,3.38l-18.54 10.7c-1.73,1 -4.35,1.1 -5.85,0.24z"/>
   <path class="fil5" d="M760.82 750.49l-18.71 -10.8c-1.5,-0.87 -1.31,-2.38 0.42,-3.38l18.54 -10.7c1.73,-1 4.36,-1.11 5.86,-0.24l18.71 10.8c1.5,0.87 1.31,2.38 -0.42,3.38l-18.54 10.7c-1.74,1 -4.36,1.11 -5.86,0.24z"/>
   <path class="fil5" d="M731.49 733.56l-18.71 -10.8c-1.5,-0.87 -1.31,-2.38 0.42,-3.38l18.54 -10.7c1.73,-1 4.36,-1.11 5.86,-0.24l18.71 10.8c1.5,0.87 1.31,2.38 -0.42,3.38l-18.54 10.7c-1.73,1.01 -4.36,1.11 -5.86,0.25z"/>
   <path class="fil5" d="M702.12 716.6l-40.29 -23.26c-1.5,-0.87 -1.31,-2.38 0.42,-3.38l18.54 -10.7c1.73,-1 4.36,-1.11 5.86,-0.24l40.29 23.26c1.5,0.87 1.31,2.38 -0.42,3.38l-18.54 10.7c-1.73,1 -4.35,1.11 -5.86,0.24z"/>
   <path class="fil5" d="M722.65 695.98l-32.7 -18.88c-1.5,-0.87 -1.31,-2.38 0.42,-3.38l18.54 -10.7c1.73,-1 4.36,-1.11 5.86,-0.24l32.7 18.88c1.5,0.87 1.31,2.38 -0.42,3.38l-18.54 10.7c-1.73,1.01 -4.36,1.12 -5.86,0.25z"/>
   <path class="fil5" d="M789.71 767.17l-18.71 -10.8c-1.5,-0.87 -1.31,-2.38 0.42,-3.38l18.54 -10.7c1.73,-1 4.36,-1.11 5.86,-0.24l18.71 10.8c1.5,0.87 1.31,2.38 -0.42,3.38l-18.54 10.7c-1.73,1.01 -4.35,1.11 -5.86,0.25z"/>
   <path class="fil5" d="M818.6 783.85l-18.71 -10.8c-1.5,-0.87 -1.31,-2.38 0.42,-3.38l18.54 -10.7c1.73,-1 4.36,-1.11 5.86,-0.24l18.71 10.8c1.5,0.87 1.31,2.38 -0.42,3.38l-18.54 10.7c-1.73,1.01 -4.35,1.11 -5.85,0.25z"/>
   <path class="fil5" d="M847.49 800.53l-18.71 -10.8c-1.5,-0.87 -1.31,-2.38 0.42,-3.38l18.54 -10.7c1.73,-1 4.36,-1.11 5.86,-0.24l18.71 10.8c1.5,0.87 1.31,2.38 -0.42,3.38l-18.54 10.7c-1.73,1 -4.36,1.11 -5.86,0.24z"/>
   <path class="fil5" d="M876.38 817.21l-18.71 -10.8c-1.5,-0.87 -1.31,-2.38 0.42,-3.38l18.54 -10.7c1.73,-1 4.36,-1.11 5.86,-0.24l18.71 10.8c1.5,0.87 1.31,2.38 -0.42,3.38l-18.54 10.7c-1.74,1 -4.36,1.11 -5.86,0.24z"/>
   <path class="fil5" d="M905.27 833.89l-18.71 -10.8c-1.5,-0.87 -1.31,-2.38 0.42,-3.38l18.54 -10.7c1.73,-1 4.36,-1.11 5.86,-0.24l18.71 10.8c1.5,0.87 1.31,2.38 -0.42,3.38l-18.54 10.7c-1.73,1 -4.35,1.11 -5.85,0.24z"/>
   <path class="fil5" d="M934.17 850.57l-18.71 -10.8c-1.5,-0.87 -1.31,-2.38 0.42,-3.38l18.54 -10.7c1.73,-1 4.36,-1.11 5.86,-0.24l18.71 10.8c1.5,0.87 1.31,2.38 -0.42,3.38l-18.54 10.7c-1.73,1 -4.35,1.11 -5.86,0.24z"/>
   <path class="fil5" d="M963.06 867.25l-18.71 -10.8c-1.5,-0.87 -1.31,-2.38 0.42,-3.38l18.54 -10.7c1.73,-1 4.36,-1.11 5.86,-0.24l18.71 10.8c1.5,0.87 1.31,2.38 -0.42,3.38l-18.54 10.7c-1.74,1 -4.36,1.11 -5.86,0.24z"/>
   <path class="fil5" d="M991.95 883.93l-18.71 -10.8c-1.5,-0.87 -1.31,-2.38 0.42,-3.38l18.54 -10.7c1.73,-1 4.36,-1.11 5.86,-0.24l18.71 10.8c1.5,0.87 1.31,2.38 -0.42,3.38l-18.54 10.7c-1.73,1 -4.36,1.11 -5.86,0.24z"/>
   <path class="fil5" d="M1020.84 900.61l-18.71 -10.8c-1.5,-0.87 -1.31,-2.38 0.42,-3.38l18.54 -10.7c1.73,-1 4.36,-1.11 5.86,-0.24l18.71 10.8c1.5,0.87 1.31,2.38 -0.42,3.38l-18.54 10.7c-1.73,1 -4.36,1.11 -5.86,0.24z"/>
   <path class="fil5" d="M1072.2 930.27l-40.82 -23.57c-1.5,-0.87 -1.31,-2.38 0.42,-3.38l18.54 -10.7c1.73,-1 4.36,-1.11 5.86,-0.24l40.82 23.57c1.5,0.87 1.31,2.38 -0.42,3.38l-18.54 10.7c-1.73,1 -4.36,1.11 -5.86,0.25z"/>
   <path class="fil5" d="M1128.45 897.79l-34.45 -19.89c-1.5,-0.87 -1.31,-2.38 0.42,-3.38l18.54 -10.7c1.73,-1 4.36,-1.11 5.86,-0.24l34.45 19.89c1.5,0.87 1.31,2.38 -0.42,3.38l-18.54 10.7c-1.73,1 -4.36,1.11 -5.86,0.24z"/>
   <path class="fil5" d="M840.3 763.9l-18.71 -10.8c-1.5,-0.87 -1.31,-2.38 0.42,-3.38l18.54 -10.7c1.73,-1 4.36,-1.11 5.86,-0.24l18.71 10.8c1.5,0.87 1.31,2.38 -0.42,3.38l-18.54 10.7c-1.73,1 -4.36,1.11 -5.86,0.24z"/>
   <path class="fil5" d="M810.69 746.81l-18.71 -10.8c-1.5,-0.87 -1.31,-2.38 0.42,-3.38l18.54 -10.7c1.73,-1 4.36,-1.11 5.86,-0.24l18.71 10.8c1.5,0.87 1.31,2.38 -0.42,3.38l-18.54 10.7c-1.73,1 -4.36,1.11 -5.86,0.24z"/>
   <path class="fil5" d="M781.08 729.71l-18.71 -10.8c-1.5,-0.87 -1.31,-2.38 0.42,-3.38l18.54 -10.7c1.73,-1 4.36,-1.11 5.86,-0.24l18.71 10.8c1.5,0.87 1.31,2.38 -0.42,3.38l-18.54 10.7c-1.74,1 -4.36,1.11 -5.86,0.24z"/>
   <path class="fil5" d="M751.47 712.62l-18.71 -10.8c-1.5,-0.87 -1.31,-2.38 0.42,-3.38l18.54 -10.7c1.73,-1 4.36,-1.11 5.86,-0.24l18.71 10.8c1.5,0.87 1.31,2.38 -0.42,3.38l-18.54 10.7c-1.73,1 -4.35,1.11 -5.85,0.24z"/>
   <path class="fil5" d="M869.2 780.58l-18.71 -10.8c-1.5,-0.87 -1.31,-2.38 0.42,-3.38l18.54 -10.7c1.73,-1 4.36,-1.11 5.86,-0.24l18.71 10.8c1.5,0.87 1.31,2.38 -0.42,3.38l-18.54 10.7c-1.73,1 -4.36,1.11 -5.86,0.24z"/>
   <path class="fil5" d="M898.09 797.27l-18.71 -10.8c-1.5,-0.87 -1.31,-2.38 0.42,-3.38l18.54 -10.7c1.73,-1 4.36,-1.11 5.86,-0.24l18.71 10.8c1.5,0.87 1.31,2.38 -0.42,3.38l-18.54 10.7c-1.73,1 -4.35,1.1 -5.85,0.24z"/>
   <path class="fil5" d="M926.98 813.94l-18.71 -10.8c-1.5,-0.87 -1.31,-2.38 0.42,-3.38l18.54 -10.7c1.73,-1 4.36,-1.11 5.86,-0.24l18.71 10.8c1.5,0.87 1.31,2.38 -0.42,3.38l-18.54 10.7c-1.74,1.01 -4.36,1.11 -5.86,0.25z"/>
   <path class="fil5" d="M955.87 830.63l-18.71 -10.8c-1.5,-0.87 -1.31,-2.38 0.42,-3.38l18.54 -10.7c1.73,-1 4.36,-1.11 5.86,-0.24l18.71 10.8c1.5,0.87 1.31,2.38 -0.42,3.38l-18.54 10.7c-1.73,1 -4.35,1.11 -5.86,0.24z"/>
   <path class="fil5" d="M984.76 847.31l-18.71 -10.8c-1.5,-0.87 -1.31,-2.38 0.42,-3.38l18.54 -10.7c1.73,-1 4.36,-1.11 5.86,-0.24l18.71 10.8c1.5,0.87 1.31,2.38 -0.42,3.38l-18.54 10.7c-1.73,0.99 -4.35,1.1 -5.85,0.24z"/>
   <path class="fil5" d="M1013.65 863.99l-18.71 -10.8c-1.5,-0.87 -1.31,-2.38 0.42,-3.38l18.54 -10.7c1.73,-1 4.36,-1.11 5.86,-0.24l18.71 10.8c1.5,0.87 1.31,2.38 -0.42,3.38l-18.54 10.7c-1.73,1.01 -4.36,1.11 -5.86,0.25z"/>
   <path class="fil5" d="M1042.55 880.67l-18.71 -10.8c-1.5,-0.87 -1.31,-2.38 0.42,-3.38l18.54 -10.7c1.73,-1 4.36,-1.11 5.86,-0.24l18.71 10.8c1.5,0.87 1.31,2.38 -0.42,3.38l-18.54 10.7c-1.73,1 -4.36,1.11 -5.86,0.24z"/>
   <path class="fil5" d="M1071.44 897.35l-18.71 -10.8c-1.5,-0.87 -1.31,-2.38 0.42,-3.38l18.54 -10.7c1.73,-1 4.36,-1.11 5.86,-0.24l18.71 10.8c1.5,0.87 1.31,2.38 -0.42,3.38l-18.54 10.7c-1.73,1 -4.36,1.11 -5.86,0.24z"/>
   <path class="fil5" d="M1100.33 914.03l-18.71 -10.8c-1.5,-0.87 -1.31,-2.38 0.42,-3.38l18.54 -10.7c1.73,-1 4.36,-1.11 5.86,-0.24l18.71 10.8c1.5,0.87 1.32,2.38 -0.42,3.38l-18.54 10.7c-1.73,1 -4.35,1.1 -5.85,0.24z"/>
   <path class="fil5" d="M825.09 722.64l-18.71 -10.8c-1.5,-0.87 -1.31,-2.38 0.42,-3.38l18.54 -10.7c1.73,-1 4.36,-1.11 5.86,-0.24l18.71 10.8c1.5,0.87 1.31,2.38 -0.42,3.38l-18.54 10.7c-1.74,1 -4.36,1.11 -5.86,0.24z"/>
   <path class="fil5" d="M796.34 706.05l-18.71 -10.8c-1.5,-0.87 -1.31,-2.38 0.42,-3.38l18.54 -10.7c1.73,-1 4.36,-1.11 5.86,-0.24l18.71 10.8c1.5,0.87 1.31,2.38 -0.42,3.38l-18.54 10.7c-1.73,1.01 -4.36,1.11 -5.86,0.25z"/>
   <path class="fil5" d="M767.6 689.45l-18.71 -10.8c-1.5,-0.87 -1.31,-2.38 0.42,-3.38l18.54 -10.7c1.73,-1 4.36,-1.11 5.86,-0.24l18.71 10.8c1.5,0.87 1.31,2.38 -0.42,3.38l-18.54 10.7c-1.73,1 -4.36,1.11 -5.86,0.24z"/>
   <path class="fil5" d="M738.85 672.85l-18.71 -10.8c-1.5,-0.87 -1.31,-2.38 0.42,-3.38l18.54 -10.7c1.73,-1 4.36,-1.11 5.86,-0.24l18.71 10.8c1.5,0.87 1.32,2.38 -0.42,3.38l-18.53 10.7c-1.73,1 -4.36,1.11 -5.86,0.24z"/>
   <path class="fil5" d="M768.41 655.79l-18.71 -10.8c-1.5,-0.87 -1.31,-2.38 0.42,-3.38l6.13 -3.54c1.73,-1 4.36,-1.11 5.86,-0.24l18.71 10.8c1.5,0.87 1.31,2.38 -0.42,3.38l-6.13 3.54c-1.73,1 -4.36,1.11 -5.86,0.24z"/>
   <path class="fil5" d="M805.93 677.44l-18.71 -10.8c-1.5,-0.87 -1.31,-2.38 0.42,-3.38l6.13 -3.54c1.73,-1 4.36,-1.11 5.86,-0.24l18.71 10.8c1.5,0.87 1.31,2.38 -0.42,3.38l-6.13 3.54c-1.73,1 -4.36,1.11 -5.86,0.24z"/>
   <path class="fil5" d="M834.55 693.97l-18.71 -10.8c-1.5,-0.87 -1.31,-2.38 0.42,-3.38l6.13 -3.54c1.73,-1 4.36,-1.11 5.86,-0.24l18.71 10.8c1.5,0.87 1.31,2.38 -0.42,3.38l-6.13 3.54c-1.73,1 -4.36,1.11 -5.86,0.24z"/>
   <path class="fil5" d="M863.18 710.5l-18.71 -10.8c-1.5,-0.87 -1.31,-2.38 0.42,-3.38l6.13 -3.54c1.73,-1 4.36,-1.11 5.86,-0.24l18.71 10.8c1.5,0.87 1.31,2.38 -0.42,3.38l-6.13 3.54c-1.73,1 -4.36,1.11 -5.86,0.24z"/>
   <path class="fil5" d="M891.81 727.03l-18.71 -10.8c-1.5,-0.87 -1.31,-2.38 0.42,-3.38l6.13 -3.54c1.73,-1 4.36,-1.11 5.86,-0.24l18.71 10.8c1.5,0.87 1.31,2.38 -0.42,3.38l-6.13 3.54c-1.73,1 -4.35,1.11 -5.86,0.24z"/>
   <path class="fil5" d="M1051.63 819.31l-18.71 -10.8c-1.5,-0.87 -1.31,-2.38 0.42,-3.38l6.13 -3.54c1.73,-1 4.36,-1.11 5.86,-0.24l18.71 10.8c1.5,0.87 1.31,2.38 -0.42,3.38l-6.13 3.54c-1.73,1 -4.35,1.11 -5.86,0.24z"/>
   <path class="fil5" d="M1080.27 835.83l-18.71 -10.8c-1.5,-0.87 -1.31,-2.38 0.42,-3.38l6.13 -3.54c1.73,-1 4.36,-1.11 5.86,-0.24l18.71 10.8c1.5,0.87 1.31,2.38 -0.42,3.38l-6.13 3.54c-1.74,1 -4.36,1.11 -5.86,0.24z"/>
   <path class="fil5" d="M1108.9 852.36l-18.71 -10.8c-1.5,-0.87 -1.31,-2.38 0.42,-3.38l6.13 -3.54c1.73,-1 4.36,-1.11 5.86,-0.24l18.71 10.8c1.5,0.87 1.31,2.38 -0.42,3.38l-6.13 3.54c-1.73,1 -4.36,1.11 -5.86,0.24z"/>
   <path class="fil5" d="M1137.52 868.89l-18.71 -10.8c-1.5,-0.87 -1.31,-2.38 0.42,-3.38l6.13 -3.54c1.73,-1 4.36,-1.11 5.86,-0.24l18.71 10.8c1.5,0.87 1.31,2.38 -0.42,3.38l-6.13 3.54c-1.73,1 -4.35,1.11 -5.86,0.24z"/>
   <path class="fil5" d="M853.98 739.33l-18.71 -10.8c-1.5,-0.87 -1.31,-2.38 0.42,-3.38l18.54 -10.7c1.73,-1 4.36,-1.11 5.86,-0.24l18.71 10.8c1.5,0.87 1.31,2.38 -0.42,3.38l-18.54 10.7c-1.73,1 -4.35,1.11 -5.86,0.24z"/>
   <path class="fil5" d="M882.88 756.01l-18.71 -10.8c-1.5,-0.87 -1.31,-2.38 0.42,-3.38l18.54 -10.7c1.73,-1 4.36,-1.11 5.86,-0.24l18.71 10.8c1.5,0.87 1.31,2.38 -0.42,3.38l-18.54 10.7c-1.73,1 -4.36,1.11 -5.86,0.24z"/>
   <path class="fil5" d="M911.77 772.69l-18.71 -10.8c-1.5,-0.87 -1.31,-2.38 0.42,-3.38l18.54 -10.7c1.73,-1 4.36,-1.11 5.86,-0.24l18.71 10.8c1.5,0.87 1.31,2.38 -0.42,3.38l-18.54 10.7c-1.73,1 -4.35,1.1 -5.85,0.24z"/>
   <path class="fil5" d="M940.66 789.37l-18.71 -10.8c-1.5,-0.87 -1.31,-2.38 0.42,-3.38l18.54 -10.7c1.73,-1 4.36,-1.11 5.86,-0.24l18.71 10.8c1.5,0.87 1.31,2.38 -0.42,3.38l-18.54 10.7c-1.73,1 -4.36,1.11 -5.86,0.24z"/>
   <path class="fil5" d="M969.55 806.05l-18.71 -10.8c-1.5,-0.87 -1.31,-2.38 0.42,-3.38l18.54 -10.7c1.73,-1 4.36,-1.11 5.86,-0.24l18.71 10.8c1.5,0.87 1.31,2.38 -0.42,3.38l-18.54 10.7c-1.74,1 -4.36,1.1 -5.86,0.24z"/>
   <path class="fil5" d="M998.44 822.73l-18.71 -10.8c-1.5,-0.87 -1.31,-2.38 0.42,-3.38l18.54 -10.7c1.73,-1 4.36,-1.11 5.86,-0.24l18.71 10.8c1.5,0.87 1.31,2.38 -0.42,3.38l-18.54 10.7c-1.73,0.99 -4.36,1.1 -5.86,0.24z"/>
   <path class="fil5" d="M1027.33 839.41l-18.71 -10.8c-1.5,-0.87 -1.31,-2.38 0.42,-3.38l18.54 -10.7c1.73,-1 4.36,-1.11 5.86,-0.24l18.71 10.8c1.5,0.87 1.31,2.38 -0.42,3.38l-18.54 10.7c-1.73,1 -4.35,1.11 -5.86,0.24z"/>
   <path class="fil5" d="M1056.22 856.09l-18.71 -10.8c-1.5,-0.87 -1.31,-2.38 0.42,-3.38l18.54 -10.7c1.73,-1 4.36,-1.11 5.86,-0.24l18.71 10.8c1.5,0.87 1.31,2.38 -0.42,3.38l-18.54 10.7c-1.73,1 -4.35,1.1 -5.86,0.24z"/>
   <path class="fil5" d="M1085.12 872.77l-18.71 -10.8c-1.5,-0.87 -1.31,-2.38 0.42,-3.38l18.54 -10.7c1.73,-1 4.36,-1.11 5.86,-0.24l18.71 10.8c1.5,0.87 1.31,2.38 -0.42,3.38l-18.54 10.7c-1.74,1 -4.36,1.11 -5.86,0.24z"/>
   <path class="fil5" d="M688.81 741.38l-55.1 -31.81c-1.5,-0.87 -1.31,-2.38 0.42,-3.38l18.54 -10.7c1.73,-1 4.36,-1.11 5.86,-0.24l55.1 31.81c1.5,0.87 1.31,2.38 -0.42,3.38l-18.54 10.7c-1.73,1 -4.36,1.11 -5.86,0.24z"/>
   <path class="fil5" d="M1043.75 946.31l-55.1 -31.81c-1.5,-0.87 -1.31,-2.38 0.42,-3.38l18.54 -10.7c1.73,-1 4.36,-1.11 5.86,-0.24l55.1 31.81c1.5,0.87 1.31,2.38 -0.42,3.38l-18.54 10.7c-1.73,1 -4.36,1.11 -5.86,0.24z"/>
   <path class="fil5" d="M928.2 916.45l-18.71 -10.8c-1.5,-0.87 -1.31,-2.38 0.42,-3.38l22.08 -12.75c1.73,-1 4.36,-1.11 5.86,-0.24l18.71 10.8c1.5,0.87 1.31,2.38 -0.42,3.38l-22.08 12.75c-1.73,1 -4.35,1.11 -5.86,0.24z"/>
   <path class="fil5" d="M718.39 795.31l-29.92 -17.27c-1.5,-0.87 -1.31,-2.38 0.42,-3.38l22.08 -12.75c1.73,-1 4.36,-1.11 5.86,-0.24l29.92 17.27c1.5,0.87 1.31,2.38 -0.42,3.38l-22.08 12.75c-1.73,1 -4.35,1.11 -5.86,0.24z"/>
   <path class="fil5" d="M900.37 900.38l-29.92 -17.27c-1.5,-0.87 -1.31,-2.38 0.42,-3.38l22.08 -12.75c1.73,-1 4.36,-1.11 5.86,-0.24l29.92 17.27c1.5,0.87 1.31,2.38 -0.42,3.38l-22.08 12.75c-1.74,1 -4.36,1.11 -5.86,0.24z"/>
   <path class="fil5" d="M760.08 819.38l-29.92 -17.27c-1.5,-0.87 -1.31,-2.38 0.42,-3.38l22.08 -12.75c1.73,-1 4.36,-1.11 5.86,-0.24l29.92 17.27c1.5,0.87 1.31,2.38 -0.42,3.38l-22.08 12.75c-1.73,1 -4.36,1.11 -5.86,0.24z"/>
   <path class="fil5" d="M758.72 785.85l130.09 75.1c1.62,0.93 1.62,2.44 0,3.38l-22.52 13c-1.62,0.93 -4.23,0.93 -5.85,0l-130.09 -75.1 28.36 -16.37z"/>
   <path class="fil5" d="M1008.95 946.69l20.84 12.03c1.23,0.71 1.08,1.95 -0.35,2.77l-9.04 5.21c-1.42,0.82 -3.57,0.91 -4.8,0.2l-20.84 -12.03c-1.23,-0.71 -1.08,-1.95 0.35,-2.77l9.03 -5.21c1.43,-0.82 3.57,-0.91 4.81,-0.2z"/>
   <path class="fil5" d="M979.82 929.87l20.84 12.03c1.23,0.71 1.08,1.95 -0.35,2.77l-9.03 5.21c-1.42,0.82 -3.57,0.91 -4.8,0.2l-20.84 -12.03c-1.23,-0.71 -1.08,-1.95 0.35,-2.77l9.03 -5.21c1.42,-0.82 3.57,-0.91 4.8,-0.2z"/>
   <path class="fil5" d="M950.93 913.19l20.84 12.03c1.23,0.71 1.08,1.95 -0.35,2.77l-9.03 5.21c-1.42,0.82 -3.57,0.91 -4.8,0.2l-20.84 -12.03c-1.23,-0.71 -1.08,-1.95 0.35,-2.77l9.03 -5.21c1.42,-0.82 3.57,-0.91 4.8,-0.2z"/>
   <path class="fil5" d="M995.78 920.66l20.84 12.03c1.23,0.71 1.08,1.95 -0.35,2.77l-9.04 5.21c-1.42,0.82 -3.57,0.91 -4.8,0.2l-20.84 -12.03c-1.23,-0.71 -1.08,-1.95 0.35,-2.77l9.04 -5.21c1.42,-0.82 3.57,-0.91 4.81,-0.2z"/>
   <path class="fil5" d="M620.5 738.8l-18.71 -10.8c-1.5,-0.87 -1.31,-2.38 0.42,-3.38l22.08 -12.75c1.73,-1 4.36,-1.11 5.86,-0.24l18.71 10.8c1.5,0.87 1.31,2.38 -0.42,3.38l-22.08 12.75c-1.73,1 -4.36,1.11 -5.86,0.24z"/>
   <path class="fil5" d="M649.39 755.48l-18.71 -10.8c-1.5,-0.87 -1.31,-2.38 0.42,-3.38l22.08 -12.75c1.73,-1 4.36,-1.11 5.86,-0.24l18.71 10.8c1.5,0.87 1.31,2.38 -0.42,3.38l-22.08 12.75c-1.73,1 -4.36,1.11 -5.86,0.24z"/>
   <path class="fil5" d="M678.29 772.16l-18.71 -10.8c-1.5,-0.87 -1.31,-2.38 0.42,-3.38l22.08 -12.75c1.73,-1 4.36,-1.11 5.86,-0.24l18.71 10.8c1.5,0.87 1.31,2.38 -0.42,3.38l-22.08 12.75c-1.73,1 -4.36,1.11 -5.86,0.24z"/>
   <path class="fil5" d="M718.25 758.38l-18.71 -10.8c-1.5,-0.87 -1.31,-2.38 0.42,-3.38l18.54 -10.7c1.73,-1 4.36,-1.11 5.86,-0.24l18.71 10.8c1.5,0.87 1.31,2.38 -0.42,3.38l-18.54 10.7c-1.73,1 -4.36,1.11 -5.86,0.24z"/>
   <path class="fil5" d="M747.14 775.07l-18.71 -10.8c-1.5,-0.87 -1.31,-2.38 0.42,-3.38l18.54 -10.7c1.73,-1 4.36,-1.11 5.86,-0.24l18.71 10.8c1.5,0.87 1.31,2.38 -0.42,3.38l-18.54 10.7c-1.73,1 -4.36,1.11 -5.86,0.24z"/>
   <path class="fil5" d="M776.03 791.74l-18.71 -10.8c-1.5,-0.87 -1.31,-2.38 0.42,-3.38l18.54 -10.7c1.73,-1 4.36,-1.11 5.86,-0.24l18.71 10.8c1.5,0.87 1.31,2.38 -0.42,3.38l-18.54 10.7c-1.73,1 -4.35,1.11 -5.86,0.24z"/>
   <path class="fil5" d="M804.92 808.43l-18.71 -10.8c-1.5,-0.87 -1.31,-2.38 0.42,-3.38l18.54 -10.7c1.73,-1 4.36,-1.11 5.86,-0.24l18.71 10.8c1.5,0.87 1.31,2.38 -0.42,3.38l-18.54 10.7c-1.73,1 -4.35,1.11 -5.86,0.24z"/>
   <path class="fil5" d="M833.81 825.11l-18.71 -10.8c-1.5,-0.87 -1.31,-2.38 0.42,-3.38l18.54 -10.7c1.73,-1 4.36,-1.11 5.86,-0.24l18.71 10.8c1.5,0.87 1.31,2.38 -0.42,3.38l-18.54 10.7c-1.74,1 -4.36,1.11 -5.86,0.24z"/>
   <path class="fil5" d="M862.71 841.79l-18.71 -10.8c-1.5,-0.87 -1.31,-2.38 0.42,-3.38l18.54 -10.7c1.73,-1 4.36,-1.11 5.86,-0.24l18.71 10.8c1.5,0.87 1.31,2.38 -0.42,3.38l-18.54 10.7c-1.73,1 -4.36,1.11 -5.86,0.24z"/>
   <path class="fil5" d="M891.6 858.47l-18.71 -10.8c-1.5,-0.87 -1.31,-2.38 0.42,-3.38l18.54 -10.7c1.73,-1 4.36,-1.11 5.86,-0.24l18.71 10.8c1.5,0.87 1.31,2.38 -0.42,3.38l-18.54 10.7c-1.73,1 -4.35,1.11 -5.85,0.24z"/>
   <path class="fil5" d="M920.49 875.15l-18.71 -10.8c-1.5,-0.87 -1.31,-2.38 0.42,-3.38l18.54 -10.7c1.73,-1 4.36,-1.11 5.86,-0.24l18.71 10.8c1.5,0.87 1.31,2.38 -0.42,3.38l-18.54 10.7c-1.73,1 -4.35,1.11 -5.86,0.24z"/>
   <path class="fil5" d="M949.38 891.83l-18.71 -10.8c-1.5,-0.87 -1.31,-2.38 0.42,-3.38l18.54 -10.7c1.73,-1 4.36,-1.11 5.86,-0.24l18.71 10.8c1.5,0.87 1.31,2.38 -0.42,3.38l-18.54 10.7c-1.74,1 -4.36,1.11 -5.86,0.24z"/>
   <path class="fil5" d="M978.27 908.51l-18.71 -10.8c-1.5,-0.87 -1.31,-2.38 0.42,-3.38l18.54 -10.7c1.73,-1 4.36,-1.11 5.86,-0.24l18.71 10.8c1.5,0.87 1.31,2.38 -0.42,3.38l-18.54 10.7c-1.73,1 -4.35,1.1 -5.85,0.24z"/>
   <path class="fil5" d="M760.82 750.49l-18.71 -10.8c-1.5,-0.87 -1.31,-2.38 0.42,-3.38l18.54 -10.7c1.73,-1 4.36,-1.11 5.86,-0.24l18.71 10.8c1.5,0.87 1.31,2.38 -0.42,3.38l-18.54 10.7c-1.74,1 -4.36,1.11 -5.86,0.24z"/>
   <path class="fil5" d="M731.49 733.56l-18.71 -10.8c-1.5,-0.87 -1.31,-2.38 0.42,-3.38l18.54 -10.7c1.73,-1 4.36,-1.11 5.86,-0.24l18.71 10.8c1.5,0.87 1.31,2.38 -0.42,3.38l-18.54 10.7c-1.73,1.01 -4.36,1.11 -5.86,0.25z"/>
   <path class="fil5" d="M702.12 716.6l-40.29 -23.26c-1.5,-0.87 -1.31,-2.38 0.42,-3.38l18.54 -10.7c1.73,-1 4.36,-1.11 5.86,-0.24l40.29 23.26c1.5,0.87 1.31,2.38 -0.42,3.38l-18.54 10.7c-1.73,1 -4.35,1.11 -5.86,0.24z"/>
   <path class="fil5" d="M722.65 695.98l-32.7 -18.88c-1.5,-0.87 -1.31,-2.38 0.42,-3.38l18.54 -10.7c1.73,-1 4.36,-1.11 5.86,-0.24l32.7 18.88c1.5,0.87 1.31,2.38 -0.42,3.38l-18.54 10.7c-1.73,1.01 -4.36,1.12 -5.86,0.25z"/>
   <path class="fil5" d="M789.71 767.17l-18.71 -10.8c-1.5,-0.87 -1.31,-2.38 0.42,-3.38l18.54 -10.7c1.73,-1 4.36,-1.11 5.86,-0.24l18.71 10.8c1.5,0.87 1.31,2.38 -0.42,3.38l-18.54 10.7c-1.73,1.01 -4.35,1.11 -5.86,0.25z"/>
   <path class="fil5" d="M818.6 783.85l-18.71 -10.8c-1.5,-0.87 -1.31,-2.38 0.42,-3.38l18.54 -10.7c1.73,-1 4.36,-1.11 5.86,-0.24l18.71 10.8c1.5,0.87 1.31,2.38 -0.42,3.38l-18.54 10.7c-1.73,1.01 -4.35,1.11 -5.85,0.25z"/>
   <path class="fil5" d="M847.49 800.53l-18.71 -10.8c-1.5,-0.87 -1.31,-2.38 0.42,-3.38l18.54 -10.7c1.73,-1 4.36,-1.11 5.86,-0.24l18.71 10.8c1.5,0.87 1.31,2.38 -0.42,3.38l-18.54 10.7c-1.73,1 -4.36,1.11 -5.86,0.24z"/>
   <path class="fil5" d="M876.38 817.21l-18.71 -10.8c-1.5,-0.87 -1.31,-2.38 0.42,-3.38l18.54 -10.7c1.73,-1 4.36,-1.11 5.86,-0.24l18.71 10.8c1.5,0.87 1.31,2.38 -0.42,3.38l-18.54 10.7c-1.74,1 -4.36,1.11 -5.86,0.24z"/>
   <path class="fil5" d="M905.27 833.89l-18.71 -10.8c-1.5,-0.87 -1.31,-2.38 0.42,-3.38l18.54 -10.7c1.73,-1 4.36,-1.11 5.86,-0.24l18.71 10.8c1.5,0.87 1.31,2.38 -0.42,3.38l-18.54 10.7c-1.73,1 -4.35,1.11 -5.85,0.24z"/>
   <path class="fil5" d="M934.17 850.57l-18.71 -10.8c-1.5,-0.87 -1.31,-2.38 0.42,-3.38l18.54 -10.7c1.73,-1 4.36,-1.11 5.86,-0.24l18.71 10.8c1.5,0.87 1.31,2.38 -0.42,3.38l-18.54 10.7c-1.73,1 -4.35,1.11 -5.86,0.24z"/>
   <path class="fil5" d="M963.06 867.25l-18.71 -10.8c-1.5,-0.87 -1.31,-2.38 0.42,-3.38l18.54 -10.7c1.73,-1 4.36,-1.11 5.86,-0.24l18.71 10.8c1.5,0.87 1.31,2.38 -0.42,3.38l-18.54 10.7c-1.74,1 -4.36,1.11 -5.86,0.24z"/>
   <path class="fil5" d="M991.95 883.93l-18.71 -10.8c-1.5,-0.87 -1.31,-2.38 0.42,-3.38l18.54 -10.7c1.73,-1 4.36,-1.11 5.86,-0.24l18.71 10.8c1.5,0.87 1.31,2.38 -0.42,3.38l-18.54 10.7c-1.73,1 -4.36,1.11 -5.86,0.24z"/>
   <path class="fil5" d="M1020.84 900.61l-18.71 -10.8c-1.5,-0.87 -1.31,-2.38 0.42,-3.38l18.54 -10.7c1.73,-1 4.36,-1.11 5.86,-0.24l18.71 10.8c1.5,0.87 1.31,2.38 -0.42,3.38l-18.54 10.7c-1.73,1 -4.36,1.11 -5.86,0.24z"/>
   <path class="fil5" d="M1072.2 930.27l-40.82 -23.57c-1.5,-0.87 -1.31,-2.38 0.42,-3.38l18.54 -10.7c1.73,-1 4.36,-1.11 5.86,-0.24l40.82 23.57c1.5,0.87 1.31,2.38 -0.42,3.38l-18.54 10.7c-1.73,1 -4.36,1.11 -5.86,0.25z"/>
   <path class="fil5" d="M1128.45 897.79l-34.45 -19.89c-1.5,-0.87 -1.31,-2.38 0.42,-3.38l18.54 -10.7c1.73,-1 4.36,-1.11 5.86,-0.24l34.45 19.89c1.5,0.87 1.31,2.38 -0.42,3.38l-18.54 10.7c-1.73,1 -4.36,1.11 -5.86,0.24z"/>
   <path class="fil5" d="M840.3 763.9l-18.71 -10.8c-1.5,-0.87 -1.31,-2.38 0.42,-3.38l18.54 -10.7c1.73,-1 4.36,-1.11 5.86,-0.24l18.71 10.8c1.5,0.87 1.31,2.38 -0.42,3.38l-18.54 10.7c-1.73,1 -4.36,1.11 -5.86,0.24z"/>
   <path class="fil5" d="M810.69 746.81l-18.71 -10.8c-1.5,-0.87 -1.31,-2.38 0.42,-3.38l18.54 -10.7c1.73,-1 4.36,-1.11 5.86,-0.24l18.71 10.8c1.5,0.87 1.31,2.38 -0.42,3.38l-18.54 10.7c-1.73,1 -4.36,1.11 -5.86,0.24z"/>
   <path class="fil5" d="M781.08 729.71l-18.71 -10.8c-1.5,-0.87 -1.31,-2.38 0.42,-3.38l18.54 -10.7c1.73,-1 4.36,-1.11 5.86,-0.24l18.71 10.8c1.5,0.87 1.31,2.38 -0.42,3.38l-18.54 10.7c-1.74,1 -4.36,1.11 -5.86,0.24z"/>
   <path class="fil5" d="M751.47 712.62l-18.71 -10.8c-1.5,-0.87 -1.31,-2.38 0.42,-3.38l18.54 -10.7c1.73,-1 4.36,-1.11 5.86,-0.24l18.71 10.8c1.5,0.87 1.31,2.38 -0.42,3.38l-18.54 10.7c-1.73,1 -4.35,1.11 -5.85,0.24z"/>
   <path class="fil5" d="M869.2 780.58l-18.71 -10.8c-1.5,-0.87 -1.31,-2.38 0.42,-3.38l18.54 -10.7c1.73,-1 4.36,-1.11 5.86,-0.24l18.71 10.8c1.5,0.87 1.31,2.38 -0.42,3.38l-18.54 10.7c-1.73,1 -4.36,1.11 -5.86,0.24z"/>
   <path class="fil5" d="M898.09 797.27l-18.71 -10.8c-1.5,-0.87 -1.31,-2.38 0.42,-3.38l18.54 -10.7c1.73,-1 4.36,-1.11 5.86,-0.24l18.71 10.8c1.5,0.87 1.31,2.38 -0.42,3.38l-18.54 10.7c-1.73,1 -4.35,1.1 -5.85,0.24z"/>
   <path class="fil5" d="M926.98 813.94l-18.71 -10.8c-1.5,-0.87 -1.31,-2.38 0.42,-3.38l18.54 -10.7c1.73,-1 4.36,-1.11 5.86,-0.24l18.71 10.8c1.5,0.87 1.31,2.38 -0.42,3.38l-18.54 10.7c-1.74,1.01 -4.36,1.11 -5.86,0.25z"/>
   <path class="fil5" d="M955.87 830.63l-18.71 -10.8c-1.5,-0.87 -1.31,-2.38 0.42,-3.38l18.54 -10.7c1.73,-1 4.36,-1.11 5.86,-0.24l18.71 10.8c1.5,0.87 1.31,2.38 -0.42,3.38l-18.54 10.7c-1.73,1 -4.35,1.11 -5.86,0.24z"/>
   <path class="fil5" d="M984.76 847.31l-18.71 -10.8c-1.5,-0.87 -1.31,-2.38 0.42,-3.38l18.54 -10.7c1.73,-1 4.36,-1.11 5.86,-0.24l18.71 10.8c1.5,0.87 1.31,2.38 -0.42,3.38l-18.54 10.7c-1.73,0.99 -4.35,1.1 -5.85,0.24z"/>
   <path class="fil5" d="M1013.65 863.99l-18.71 -10.8c-1.5,-0.87 -1.31,-2.38 0.42,-3.38l18.54 -10.7c1.73,-1 4.36,-1.11 5.86,-0.24l18.71 10.8c1.5,0.87 1.31,2.38 -0.42,3.38l-18.54 10.7c-1.73,1.01 -4.36,1.11 -5.86,0.25z"/>
   <path class="fil5" d="M1042.55 880.67l-18.71 -10.8c-1.5,-0.87 -1.31,-2.38 0.42,-3.38l18.54 -10.7c1.73,-1 4.36,-1.11 5.86,-0.24l18.71 10.8c1.5,0.87 1.31,2.38 -0.42,3.38l-18.54 10.7c-1.73,1 -4.36,1.11 -5.86,0.24z"/>
   <path class="fil5" d="M1071.44 897.35l-18.71 -10.8c-1.5,-0.87 -1.31,-2.38 0.42,-3.38l18.54 -10.7c1.73,-1 4.36,-1.11 5.86,-0.24l18.71 10.8c1.5,0.87 1.31,2.38 -0.42,3.38l-18.54 10.7c-1.73,1 -4.36,1.11 -5.86,0.24z"/>
   <path class="fil5" d="M1100.33 914.03l-18.71 -10.8c-1.5,-0.87 -1.31,-2.38 0.42,-3.38l18.54 -10.7c1.73,-1 4.36,-1.11 5.86,-0.24l18.71 10.8c1.5,0.87 1.32,2.38 -0.42,3.38l-18.54 10.7c-1.73,1 -4.35,1.1 -5.85,0.24z"/>
   <path class="fil5" d="M825.09 722.64l-18.71 -10.8c-1.5,-0.87 -1.31,-2.38 0.42,-3.38l18.54 -10.7c1.73,-1 4.36,-1.11 5.86,-0.24l18.71 10.8c1.5,0.87 1.31,2.38 -0.42,3.38l-18.54 10.7c-1.74,1 -4.36,1.11 -5.86,0.24z"/>
   <path class="fil5" d="M796.34 706.05l-18.71 -10.8c-1.5,-0.87 -1.31,-2.38 0.42,-3.38l18.54 -10.7c1.73,-1 4.36,-1.11 5.86,-0.24l18.71 10.8c1.5,0.87 1.31,2.38 -0.42,3.38l-18.54 10.7c-1.73,1.01 -4.36,1.11 -5.86,0.25z"/>
   <path class="fil5" d="M767.6 689.45l-18.71 -10.8c-1.5,-0.87 -1.31,-2.38 0.42,-3.38l18.54 -10.7c1.73,-1 4.36,-1.11 5.86,-0.24l18.71 10.8c1.5,0.87 1.31,2.38 -0.42,3.38l-18.54 10.7c-1.73,1 -4.36,1.11 -5.86,0.24z"/>
   <path class="fil5" d="M738.85 672.85l-18.71 -10.8c-1.5,-0.87 -1.31,-2.38 0.42,-3.38l18.54 -10.7c1.73,-1 4.36,-1.11 5.86,-0.24l18.71 10.8c1.5,0.87 1.32,2.38 -0.42,3.38l-18.53 10.7c-1.73,1 -4.36,1.11 -5.86,0.24z"/>
   <path class="fil5" d="M768.41 655.79l-18.71 -10.8c-1.5,-0.87 -1.31,-2.38 0.42,-3.38l6.13 -3.54c1.73,-1 4.36,-1.11 5.86,-0.24l18.71 10.8c1.5,0.87 1.31,2.38 -0.42,3.38l-6.13 3.54c-1.73,1 -4.36,1.11 -5.86,0.24z"/>
   <path class="fil5" d="M805.93 677.44l-18.71 -10.8c-1.5,-0.87 -1.31,-2.38 0.42,-3.38l6.13 -3.54c1.73,-1 4.36,-1.11 5.86,-0.24l18.71 10.8c1.5,0.87 1.31,2.38 -0.42,3.38l-6.13 3.54c-1.73,1 -4.36,1.11 -5.86,0.24z"/>
   <path class="fil5" d="M834.55 693.97l-18.71 -10.8c-1.5,-0.87 -1.31,-2.38 0.42,-3.38l6.13 -3.54c1.73,-1 4.36,-1.11 5.86,-0.24l18.71 10.8c1.5,0.87 1.31,2.38 -0.42,3.38l-6.13 3.54c-1.73,1 -4.36,1.11 -5.86,0.24z"/>
   <path class="fil5" d="M863.18 710.5l-18.71 -10.8c-1.5,-0.87 -1.31,-2.38 0.42,-3.38l6.13 -3.54c1.73,-1 4.36,-1.11 5.86,-0.24l18.71 10.8c1.5,0.87 1.31,2.38 -0.42,3.38l-6.13 3.54c-1.73,1 -4.36,1.11 -5.86,0.24z"/>
   <path class="fil5" d="M891.81 727.03l-18.71 -10.8c-1.5,-0.87 -1.31,-2.38 0.42,-3.38l6.13 -3.54c1.73,-1 4.36,-1.11 5.86,-0.24l18.71 10.8c1.5,0.87 1.31,2.38 -0.42,3.38l-6.13 3.54c-1.73,1 -4.35,1.11 -5.86,0.24z"/>
   <path class="fil5" d="M1051.63 819.31l-18.71 -10.8c-1.5,-0.87 -1.31,-2.38 0.42,-3.38l6.13 -3.54c1.73,-1 4.36,-1.11 5.86,-0.24l18.71 10.8c1.5,0.87 1.31,2.38 -0.42,3.38l-6.13 3.54c-1.73,1 -4.35,1.11 -5.86,0.24z"/>
   <path class="fil5" d="M1080.27 835.83l-18.71 -10.8c-1.5,-0.87 -1.31,-2.38 0.42,-3.38l6.13 -3.54c1.73,-1 4.36,-1.11 5.86,-0.24l18.71 10.8c1.5,0.87 1.31,2.38 -0.42,3.38l-6.13 3.54c-1.74,1 -4.36,1.11 -5.86,0.24z"/>
   <path class="fil5" d="M1108.9 852.36l-18.71 -10.8c-1.5,-0.87 -1.31,-2.38 0.42,-3.38l6.13 -3.54c1.73,-1 4.36,-1.11 5.86,-0.24l18.71 10.8c1.5,0.87 1.31,2.38 -0.42,3.38l-6.13 3.54c-1.73,1 -4.36,1.11 -5.86,0.24z"/>
   <path class="fil5" d="M1137.52 868.89l-18.71 -10.8c-1.5,-0.87 -1.31,-2.38 0.42,-3.38l6.13 -3.54c1.73,-1 4.36,-1.11 5.86,-0.24l18.71 10.8c1.5,0.87 1.31,2.38 -0.42,3.38l-6.13 3.54c-1.73,1 -4.35,1.11 -5.86,0.24z"/>
   <path class="fil5" d="M853.98 739.33l-18.71 -10.8c-1.5,-0.87 -1.31,-2.38 0.42,-3.38l18.54 -10.7c1.73,-1 4.36,-1.11 5.86,-0.24l18.71 10.8c1.5,0.87 1.31,2.38 -0.42,3.38l-18.54 10.7c-1.73,1 -4.35,1.11 -5.86,0.24z"/>
   <path class="fil5" d="M882.88 756.01l-18.71 -10.8c-1.5,-0.87 -1.31,-2.38 0.42,-3.38l18.54 -10.7c1.73,-1 4.36,-1.11 5.86,-0.24l18.71 10.8c1.5,0.87 1.31,2.38 -0.42,3.38l-18.54 10.7c-1.73,1 -4.36,1.11 -5.86,0.24z"/>
   <path class="fil5" d="M911.77 772.69l-18.71 -10.8c-1.5,-0.87 -1.31,-2.38 0.42,-3.38l18.54 -10.7c1.73,-1 4.36,-1.11 5.86,-0.24l18.71 10.8c1.5,0.87 1.31,2.38 -0.42,3.38l-18.54 10.7c-1.73,1 -4.35,1.1 -5.85,0.24z"/>
   <path class="fil5" d="M940.66 789.37l-18.71 -10.8c-1.5,-0.87 -1.31,-2.38 0.42,-3.38l18.54 -10.7c1.73,-1 4.36,-1.11 5.86,-0.24l18.71 10.8c1.5,0.87 1.31,2.38 -0.42,3.38l-18.54 10.7c-1.73,1 -4.36,1.11 -5.86,0.24z"/>
   <path class="fil5" d="M969.55 806.05l-18.71 -10.8c-1.5,-0.87 -1.31,-2.38 0.42,-3.38l18.54 -10.7c1.73,-1 4.36,-1.11 5.86,-0.24l18.71 10.8c1.5,0.87 1.31,2.38 -0.42,3.38l-18.54 10.7c-1.74,1 -4.36,1.1 -5.86,0.24z"/>
   <path class="fil5" d="M998.44 822.73l-18.71 -10.8c-1.5,-0.87 -1.31,-2.38 0.42,-3.38l18.54 -10.7c1.73,-1 4.36,-1.11 5.86,-0.24l18.71 10.8c1.5,0.87 1.31,2.38 -0.42,3.38l-18.54 10.7c-1.73,0.99 -4.36,1.1 -5.86,0.24z"/>
   <path class="fil5" d="M1027.33 839.41l-18.71 -10.8c-1.5,-0.87 -1.31,-2.38 0.42,-3.38l18.54 -10.7c1.73,-1 4.36,-1.11 5.86,-0.24l18.71 10.8c1.5,0.87 1.31,2.38 -0.42,3.38l-18.54 10.7c-1.73,1 -4.35,1.11 -5.86,0.24z"/>
   <path class="fil5" d="M1056.22 856.09l-18.71 -10.8c-1.5,-0.87 -1.31,-2.38 0.42,-3.38l18.54 -10.7c1.73,-1 4.36,-1.11 5.86,-0.24l18.71 10.8c1.5,0.87 1.31,2.38 -0.42,3.38l-18.54 10.7c-1.73,1 -4.35,1.1 -5.86,0.24z"/>
   <path class="fil5" d="M1085.12 872.77l-18.71 -10.8c-1.5,-0.87 -1.31,-2.38 0.42,-3.38l18.54 -10.7c1.73,-1 4.36,-1.11 5.86,-0.24l18.71 10.8c1.5,0.87 1.31,2.38 -0.42,3.38l-18.54 10.7c-1.74,1 -4.36,1.11 -5.86,0.24z"/>
   <path class="fil5" d="M688.81 741.38l-55.1 -31.81c-1.5,-0.87 -1.31,-2.38 0.42,-3.38l18.54 -10.7c1.73,-1 4.36,-1.11 5.86,-0.24l55.1 31.81c1.5,0.87 1.31,2.38 -0.42,3.38l-18.54 10.7c-1.73,1 -4.36,1.11 -5.86,0.24z"/>
   <path class="fil5" d="M1043.75 946.31l-55.1 -31.81c-1.5,-0.87 -1.31,-2.38 0.42,-3.38l18.54 -10.7c1.73,-1 4.36,-1.11 5.86,-0.24l55.1 31.81c1.5,0.87 1.31,2.38 -0.42,3.38l-18.54 10.7c-1.73,1 -4.36,1.11 -5.86,0.24z"/>
   <path class="fil5" d="M928.2 916.45l-18.71 -10.8c-1.5,-0.87 -1.31,-2.38 0.42,-3.38l22.08 -12.75c1.73,-1 4.36,-1.11 5.86,-0.24l18.71 10.8c1.5,0.87 1.31,2.38 -0.42,3.38l-22.08 12.75c-1.73,1 -4.35,1.11 -5.86,0.24z"/>
   <path class="fil5" d="M718.39 795.31l-29.92 -17.27c-1.5,-0.87 -1.31,-2.38 0.42,-3.38l22.08 -12.75c1.73,-1 4.36,-1.11 5.86,-0.24l29.92 17.27c1.5,0.87 1.31,2.38 -0.42,3.38l-22.08 12.75c-1.73,1 -4.35,1.11 -5.86,0.24z"/>
   <path class="fil5" d="M900.37 900.38l-29.92 -17.27c-1.5,-0.87 -1.31,-2.38 0.42,-3.38l22.08 -12.75c1.73,-1 4.36,-1.11 5.86,-0.24l29.92 17.27c1.5,0.87 1.31,2.38 -0.42,3.38l-22.08 12.75c-1.74,1 -4.36,1.11 -5.86,0.24z"/>
   <path class="fil5" d="M760.08 819.38l-29.92 -17.27c-1.5,-0.87 -1.31,-2.38 0.42,-3.38l22.08 -12.75c1.73,-1 4.36,-1.11 5.86,-0.24l29.92 17.27c1.5,0.87 1.31,2.38 -0.42,3.38l-22.08 12.75c-1.73,1 -4.36,1.11 -5.86,0.24z"/>
   <path class="fil5" d="M758.72 785.85l130.09 75.1c1.62,0.93 1.62,2.44 0,3.38l-22.52 13c-1.62,0.93 -4.23,0.93 -5.85,0l-130.09 -75.1 28.36 -16.37z"/>
   <path class="fil5" d="M1008.95 946.69l20.84 12.03c1.23,0.71 1.08,1.95 -0.35,2.77l-9.04 5.21c-1.42,0.82 -3.57,0.91 -4.8,0.2l-20.84 -12.03c-1.23,-0.71 -1.08,-1.95 0.35,-2.77l9.03 -5.21c1.43,-0.82 3.57,-0.91 4.81,-0.2z"/>
   <path class="fil5" d="M979.82 929.87l20.84 12.03c1.23,0.71 1.08,1.95 -0.35,2.77l-9.03 5.21c-1.42,0.82 -3.57,0.91 -4.8,0.2l-20.84 -12.03c-1.23,-0.71 -1.08,-1.95 0.35,-2.77l9.03 -5.21c1.42,-0.82 3.57,-0.91 4.8,-0.2z"/>
   <path class="fil5" d="M950.93 913.19l20.84 12.03c1.23,0.71 1.08,1.95 -0.35,2.77l-9.03 5.21c-1.42,0.82 -3.57,0.91 -4.8,0.2l-20.84 -12.03c-1.23,-0.71 -1.08,-1.95 0.35,-2.77l9.03 -5.21c1.42,-0.82 3.57,-0.91 4.8,-0.2z"/>
   <path class="fil5" d="M995.78 920.66l20.84 12.03c1.23,0.71 1.08,1.95 -0.35,2.77l-9.04 5.21c-1.42,0.82 -3.57,0.91 -4.8,0.2l-20.84 -12.03c-1.23,-0.71 -1.08,-1.95 0.35,-2.77l9.04 -5.21c1.42,-0.82 3.57,-0.91 4.81,-0.2z"/>
   <path class="fil3" d="M1301.55 886.92l-551.96 -318.68c-8.68,-5.01 -13.21,-17.22 -10.12,-27.27l124.83 -405.28c3.09,-10.05 12.63,-14.13 21.31,-9.12l551.96 318.68c8.68,5.01 13.21,17.22 10.12,27.27l-124.83 405.28c-3.09,10.05 -12.63,14.14 -21.31,9.12z"/>
   <path class="fil6" d="M1296.34 872.72l-535.37 -309.35c-8.31,-4.8 -12.64,-16.48 -9.68,-26.1l119.34 -387.45c2.96,-9.62 12.09,-13.53 20.4,-8.73l535.37 309.35c8.31,4.8 12.64,16.48 9.68,26.1l-119.34 387.45c-2.96,9.62 -12.09,13.53 -20.4,8.73z"/>
   <path class="fil5" d="M1296.34 872.72l-535.37 -309.35c-8.31,-4.8 -12.64,-16.48 -9.68,-26.1l119.34 -387.45c2.96,-9.62 12.09,-13.53 20.4,-8.73l535.37 309.35c8.31,4.8 12.64,16.48 9.68,26.1l-119.34 387.45c-2.96,9.62 -12.09,13.53 -20.4,8.73z"/>
   <path class="fil7" d="M1296.34 872.72l-535.37 -309.35c-8.31,-4.8 -12.64,-16.48 -9.68,-26.1l119.34 -387.45c2.96,-9.62 12.09,-13.53 20.4,-8.73l535.37 309.35c8.31,4.8 12.64,16.48 9.68,26.1l-119.34 387.45c-2.96,9.62 -12.09,13.53 -20.4,8.73z"/>
   <path class="fil8" d="M1267.58 754.32l-362.42 -209.24c-5.7,-3.29 -8.67,-11.31 -6.65,-17.91l81.96 -266.11c2.03,-6.6 8.29,-9.28 14,-5.99l362.42 209.24c5.7,3.29 8.67,11.31 6.65,17.91l-81.96 266.11c-2.03,6.6 -8.29,9.28 -14,5.99z"/>
   <path class="fil9" d="M1218.61 760.74l-362.42 -209.24c-5.7,-3.29 -8.67,-11.31 -6.65,-17.91l81.96 -266.11c2.03,-6.6 8.29,-9.28 13.99,-5.99l362.42 209.25c5.7,3.29 8.67,11.31 6.64,17.91l-81.96 266.11c-2.02,6.6 -8.29,9.28 -13.99,5.99z"/>
   <path class="fil10" d="M1218.61 760.74l-362.42 -209.24c-5.7,-3.29 -8.67,-11.31 -6.65,-17.91l81.96 -266.11c2.03,-6.6 8.29,-9.28 13.99,-5.99l362.42 209.25c5.7,3.29 8.67,11.31 6.64,17.91l-81.96 266.11c-2.02,6.6 -8.29,9.28 -13.99,5.99z"/>
   <path class="fil4" d="M1307.92 470.74l-362.42 -209.25c-3.57,-2.06 -7.36,-1.78 -10.2,0.35 1.71,-0.05 3.49,0.34 5.23,1.34l362.42 209.24c5.7,3.29 8.67,11.31 6.64,17.91l-81.96 266.11c-0.76,2.46 -2.11,4.38 -3.8,5.64 3.89,-0.11 7.35,-2.75 8.76,-7.33l81.96 -266.11c2.03,-6.59 -0.94,-14.61 -6.64,-17.9z"/>
   <path class="fil5" d="M761.52 978.05c-5,0 -9.78,-1.04 -13.43,-3.15l0 0 -145.21 -83.83c-3.85,-2.23 -5.97,-5.4 -5.97,-8.95 -0,-4.11 2.92,-8.16 8.01,-11.1l74.74 -43.16c9.14,-5.27 22.54,-5.79 30.53,-1.18l145.2 83.83c3.85,2.22 5.97,5.4 5.97,8.95 0,4.11 -2.92,8.16 -8.01,11.1l-74.75 43.16c-4.95,2.86 -11.17,4.32 -17.1,4.32zm-64.68 -150.25c-5.25,0 -10.82,1.26 -15.07,3.71l-74.74 43.15c-3.76,2.17 -5.92,4.89 -5.92,7.47 0,2.54 2.11,4.29 3.87,5.31l145.21 83.83c6.59,3.79 18.64,3.27 26.33,-1.18l74.74 -43.15c3.76,-2.17 5.91,-4.89 5.91,-7.47 0,-2.54 -2.11,-4.29 -3.87,-5.31l-145.2 -83.83c-2.95,-1.7 -7,-2.53 -11.26,-2.53z"/>
   <path class="fil4" d="M1033.78 401.11l-22.41 -12.94c-2.08,-1.2 -3.19,-4.09 -2.49,-6.44l0 0c0.7,-2.36 2.96,-3.3 5.04,-2.1l22.41 12.94c2.08,1.2 3.19,4.09 2.49,6.44l0 0c-0.71,2.36 -2.96,3.29 -5.04,2.1z"/>
   <path class="fil4" d="M1087.15 431.92l-33.04 -19.08c-2.08,-1.2 -3.19,-4.09 -2.49,-6.44l0 0c0.7,-2.36 2.96,-3.3 5.04,-2.1l33.04 19.07c2.08,1.2 3.19,4.09 2.49,6.44l0 0c-0.7,2.36 -2.96,3.3 -5.04,2.1z"/>
   <path class="fil4" d="M988.59 500.86l-22.41 -12.94c-2.08,-1.2 -3.19,-4.09 -2.49,-6.44l0 0c0.7,-2.36 2.96,-3.3 5.04,-2.1l22.41 12.94c2.08,1.2 3.19,4.09 2.49,6.44l0 0c-0.7,2.36 -2.96,3.3 -5.04,2.1z"/>
   <path class="fil4" d="M1036.17 528.33l-33.04 -19.07c-2.08,-1.2 -3.19,-4.09 -2.49,-6.44l0 0c0.7,-2.36 2.96,-3.3 5.04,-2.1l33.04 19.08c2.08,1.2 3.19,4.09 2.49,6.44l0 0c-0.7,2.35 -2.96,3.29 -5.04,2.09z"/>
   <path class="fil4" d="M966.66 383.33l-14 -8.08c-2.08,-1.2 -3.19,-4.09 -2.49,-6.44l0 0c0.7,-2.36 2.96,-3.3 5.04,-2.1l14 8.08c2.08,1.2 3.19,4.09 2.49,6.44l0 0c-0.7,2.36 -2.96,3.3 -5.04,2.1z"/>
   <path class="fil4" d="M1008.78 428.62l-42.76 -24.69c-2.08,-1.2 -3.19,-4.09 -2.49,-6.44l0 0c0.7,-2.36 2.96,-3.3 5.04,-2.1l42.76 24.69c2.08,1.2 3.19,4.09 2.49,6.44l0 0c-0.7,2.36 -2.96,3.3 -5.04,2.1z"/>
   <path class="fil4" d="M969.33 447.79l-14 -8.08c-2.08,-1.2 -3.19,-4.09 -2.49,-6.44l0 0c0.7,-2.36 2.96,-3.3 5.04,-2.1l14 8.08c2.08,1.2 3.19,4.09 2.49,6.44l0 0c-0.71,2.35 -2.96,3.3 -5.04,2.09z"/>
   <path class="fil4" d="M1041.33 573.25l-37.39 -21.58c-2.08,-1.2 -3.19,-4.09 -2.49,-6.44l0 0c0.7,-2.36 2.96,-3.3 5.04,-2.1l37.39 21.58c2.08,1.2 3.19,4.09 2.49,6.44l0 0c-0.71,2.36 -2.96,3.3 -5.04,2.1z"/>
   <path class="fil4" d="M953.64 480.68l-8.99 -5.19c-2.08,-1.2 -3.19,-4.09 -2.49,-6.44l0 0c0.7,-2.36 2.96,-3.3 5.04,-2.1l8.99 5.19c2.08,1.2 3.19,4.09 2.49,6.44l0 0c-0.71,2.36 -2.96,3.29 -5.04,2.1z"/>
   <path class="fil4" d="M945.14 517.72l-11.16 -6.44c-2.08,-1.2 -3.19,-4.09 -2.49,-6.44l0 0c0.7,-2.36 2.96,-3.3 5.04,-2.1l11.16 6.44c2.08,1.2 3.19,4.09 2.49,6.44l0 0c-0.7,2.36 -2.96,3.3 -5.04,2.1z"/>
   <path class="fil4" d="M988.55 542.78l-29.42 -16.98c-2.08,-1.2 -3.19,-4.09 -2.49,-6.44l0 0c0.7,-2.36 2.96,-3.3 5.04,-2.1l29.42 16.98c2.08,1.2 3.19,4.09 2.49,6.44l0 0c-0.7,2.36 -2.96,3.3 -5.04,2.1z"/>
   <path class="fil4" d="M949.8 541.38l-21.15 -12.21c-2.08,-1.2 -3.19,-4.09 -2.49,-6.44l0 0c0.7,-2.36 2.96,-3.3 5.04,-2.1l21.15 12.21c2.08,1.2 3.19,4.09 2.49,6.44l0 0c-0.7,2.36 -2.96,3.3 -5.04,2.1z"/>
   <path class="fil4" d="M1073.4 591.86l-13.58 -7.84c-2.08,-1.2 -3.19,-4.09 -2.49,-6.44l0 0c0.7,-2.36 2.96,-3.3 5.04,-2.1l13.58 7.84c2.08,1.2 3.19,4.09 2.49,6.44l0 0c-0.7,2.36 -2.96,3.29 -5.04,2.1z"/>
   <path class="fil4" d="M1021.4 477.85l-37.39 -21.58c-2.08,-1.2 -3.19,-4.09 -2.49,-6.44l0 0c0.7,-2.36 2.96,-3.3 5.04,-2.1l37.39 21.58c2.08,1.2 3.19,4.09 2.49,6.44l0 0c-0.7,2.35 -2.96,3.3 -5.04,2.1z"/>
   <path class="fil3" d="M1025.83 459.44l-65.16 -37.62c-2.08,-1.2 -3.19,-4.09 -2.49,-6.44l0 0c0.7,-2.36 2.96,-3.3 5.04,-2.1l65.16 37.62c2.08,1.2 3.19,4.09 2.49,6.44l0 0c-0.7,2.35 -2.96,3.3 -5.04,2.1z"/>
   <path class="fil11" d="M987.38 479.19l-37.39 -21.58c-2.08,-1.2 -3.19,-4.09 -2.49,-6.44l0 0c0.7,-2.36 2.96,-3.3 5.04,-2.1l37.39 21.58c2.08,1.2 3.19,4.09 2.49,6.44l0 0c-0.7,2.36 -2.96,3.3 -5.04,2.1z"/>
   <path class="fil3" d="M1049.75 494.22l-13.58 -7.84c-2.08,-1.2 -3.19,-4.09 -2.49,-6.44l0 0c0.7,-2.36 2.96,-3.3 5.04,-2.1l13.58 7.84c2.08,1.2 3.19,4.09 2.49,6.44l0 0c-0.7,2.36 -2.96,3.3 -5.04,2.1z"/>
   <path class="fil3" d="M1187.92 490.1l-80.44 -46.44c-2.08,-1.2 -3.19,-4.09 -2.49,-6.44l0 0c0.7,-2.36 2.96,-3.3 5.04,-2.1l80.44 46.44c2.08,1.2 3.19,4.09 2.49,6.44l0 0c-0.7,2.36 -2.96,3.29 -5.04,2.1z"/>
   <path class="fil11" d="M984.26 519.33l-44.94 -25.94c-2.08,-1.2 -3.19,-4.09 -2.49,-6.44l0 0c0.7,-2.36 2.96,-3.3 5.04,-2.1l44.94 25.94c2.08,1.2 3.19,4.09 2.49,6.44l0 0c-0.7,2.36 -2.96,3.3 -5.04,2.1z"/>
   <path class="fil11" d="M991.04 376.43l-33.04 -19.08c-2.08,-1.2 -3.19,-4.09 -2.49,-6.44l0 0c0.7,-2.36 2.96,-3.3 5.04,-2.1l33.04 19.08c2.08,1.2 3.19,4.09 2.49,6.44l0 0c-0.7,2.36 -2.96,3.3 -5.04,2.1z"/>
   <path class="fil3" d="M942.89 558.37l-38.26 -22.09c-2.08,-1.2 -3.19,-4.09 -2.49,-6.44l0 0c0.7,-2.36 2.96,-3.3 5.04,-2.1l38.26 22.09c2.08,1.2 3.19,4.09 2.49,6.44l0 0c-0.7,2.36 -2.96,3.3 -5.04,2.1z"/>
   <path class="fil4" d="M1196.95 448.73l-16.37 -9.46c-1.52,-0.88 -2.34,-2.98 -1.82,-4.71l0 0c0.51,-1.72 2.16,-2.41 3.68,-1.53l16.37 9.45c1.52,0.88 2.33,2.98 1.82,4.71l0 0c-0.52,1.72 -2.17,2.41 -3.68,1.53z"/>
   <path class="fil4" d="M1228.19 466.77l-16.38 -9.46c-1.52,-0.88 -2.33,-2.98 -1.82,-4.71l0 0c0.51,-1.72 2.16,-2.41 3.68,-1.53l16.37 9.45c1.52,0.88 2.33,2.98 1.82,4.71l0 0c-0.51,1.72 -2.16,2.41 -3.68,1.54z"/>
   <path class="fil4" d="M1259.43 484.8l-16.37 -9.45c-1.52,-0.88 -2.33,-2.98 -1.82,-4.71l0 0c0.51,-1.72 2.16,-2.41 3.68,-1.53l16.37 9.45c1.52,0.88 2.34,2.98 1.82,4.71l0 0c-0.52,1.72 -2.17,2.41 -3.69,1.53z"/>
   <path class="fil12" d="M1274.78 493.68l-0.49 -0.3c-1.52,-0.88 -2.33,-2.98 -1.82,-4.71l0 0c0.51,-1.72 2.16,-2.41 3.68,-1.53l0.49 0.3c1.52,0.88 2.33,2.98 1.82,4.71l0 0c-0.51,1.72 -2.16,2.41 -3.68,1.53z"/>
   <path class="fil1" d="M429.49 685.34c-10.36,0 -20.73,-2.67 -29.97,-8.01l0 0 -109.71 -63.35c-4.76,-2.75 -7.6,-7.66 -7.6,-13.16 0,-5.49 2.84,-10.41 7.6,-13.16l109.71 -63.34c18.49,-10.67 41.47,-10.68 59.95,0l109.71 63.35c4.76,2.75 7.6,7.66 7.6,13.16 0,5.49 -2.84,10.41 -7.6,13.16l-109.71 63.34c-9.24,5.34 -19.61,8.01 -29.98,8.01zm-26.41 -14.19c16.29,9.4 36.53,9.4 52.82,0l109.71 -63.34c2.52,-1.46 4.02,-4.06 4.02,-6.97 0,-2.91 -1.51,-5.52 -4.02,-6.97l-109.71 -63.35c-16.3,-9.41 -36.53,-9.4 -52.82,0l-109.71 63.34c-2.52,1.46 -4.02,4.06 -4.02,6.97 0,2.91 1.51,5.52 4.02,6.97l109.71 63.35z"/>
   <path class="fil2" d="M482.23 633.09c-29.43,16.99 -77.14,16.99 -106.57,0 -29.43,-16.99 -29.43,-44.54 0,-61.53 29.43,-16.99 77.14,-16.99 106.57,0 29.43,16.99 29.43,44.53 0,61.53z"/>
   <path class="fil3" d="M540.64 292.25l-214.64 0 19.96 232.39 0 0c0,12.91 8.53,25.81 25.59,35.66 34.12,19.7 89.43,19.7 123.54,0 17.06,-9.85 25.59,-22.76 25.58,-35.66l19.96 -232.39z"/>
   <path class="fil5" d="M540.64 292.25l-214.64 0 3.28 38.23c4.92,6.31 11.54,12.35 19.89,17.89 41.01,27.21 108.69,32.45 154.87,12.86l-7.14 169.97c-0.31,7.41 -2.87,14.61 -7.67,20.27 -6.95,8.18 -20.35,17.81 -46.09,23.25 18.98,-1.23 37.4,-6.02 51.95,-14.42 17.06,-9.85 25.59,-22.76 25.58,-35.66l16.01 -186.37 0 0 3.95 -46.02z"/>
   <path class="fil5" d="M540.64 292.25c0,-34.22 -48.05,-61.96 -107.32,-61.96 -59.27,0 -107.32,27.74 -107.32,61.96 0,34.22 48.05,61.96 107.32,61.96 59.27,0 107.32,-27.74 107.32,-61.96z"/>
   <path class="fil5" d="M525.76 270.41c0,-29.47 -41.38,-53.37 -92.43,-53.37 -51.05,0 -92.43,23.89 -92.43,53.37 0,29.47 41.38,53.37 92.43,53.37 51.05,0 92.43,-23.89 92.43,-53.37z"/>
   <path class="fil12" d="M547 289.33l0.01 0.02 -0.02 -0.19c-0.01,-0.11 -0.02,-0.21 -0.03,-0.32l-2.06 -20.81 -0.09 0.23c-0.92,-15.75 -11.77,-31.34 -32.59,-43.36 -43.57,-25.16 -114.22,-25.16 -157.79,0 -21.35,12.33 -32.21,28.4 -32.63,44.56l-0.03 -0.05 -1.96 18.53c-0.05,0.48 -0.12,0.96 -0.15,1.45l-0.03 0.3 0.02 -0.02c-1.18,17.65 9.88,35.52 33.23,49 44.44,25.66 116.49,25.66 160.93,0 23.48,-13.56 34.54,-31.57 33.2,-49.34z"/>
   <ellipse class="fil13" cx="433.33" cy="270.41" rx="92.43" ry="53.37"/>
   <ellipse class="fil14" cx="428.94" cy="270.41" rx="92.43" ry="53.37"/>
   <path class="fil5" d="M378.93 240.62c36.1,-20.84 94.63,-20.84 130.72,0 0.46,0.27 0.84,0.56 1.29,0.83 -3.48,-3.1 -7.55,-6.05 -12.26,-8.77 -36.1,-20.84 -94.63,-20.84 -130.72,0 -35.64,20.58 -36.02,53.75 -1.29,74.65 -23.19,-20.68 -19.13,-48.58 12.26,-66.7z"/>
   <path class="fil1" d="M367.96 241.93c36.1,-20.84 94.63,-20.84 130.73,0 16.01,9.24 24.9,21.03 26.71,33.11 2.27,-15.16 -6.62,-30.77 -26.71,-42.37 -36.1,-20.84 -94.63,-20.84 -130.73,0 -20.09,11.6 -28.98,27.21 -26.71,42.37 1.81,-12.07 10.7,-23.86 26.71,-33.1z"/>
   <path class="fil3" d="M512.91 225.39c-43.51,-25.63 -114.42,-26.26 -158.37,-1.39 -43.95,24.86 -44.31,65.8 -0.8,91.43 43.51,25.63 114.41,26.26 158.37,1.4 43.95,-24.87 44.31,-65.8 0.8,-91.44zm-14.22 82.76c-12.06,6.96 -26.64,11.54 -42.03,13.85l-1.68 -5.51c-0.68,-2.23 -2.73,-3.75 -5.06,-3.75l-33.19 0c-2.32,0 -4.38,1.52 -5.06,3.75l-1.68 5.51c-15.39,-2.31 -29.97,-6.89 -42.03,-13.85 -36.1,-20.84 -36.1,-54.63 -0,-75.47 36.1,-20.84 94.63,-20.84 130.72,0 36.09,20.84 36.09,54.63 -0,75.47z"/>
   <path class="fil4" d="M498.69 228.72c-36.1,-20.84 -94.63,-20.84 -130.72,0 -18.92,10.92 -27.9,25.4 -26.99,39.71 0.83,-12.99 9.81,-25.84 26.99,-35.76 36.1,-20.84 94.63,-20.84 130.72,0 17.18,9.92 26.16,22.77 26.99,35.76 0.92,-14.31 -8.07,-28.79 -26.99,-39.71z"/>
   <path class="fil4" d="M512.11 312.87c-43.95,24.86 -114.86,24.24 -158.37,-1.4 -20.7,-12.2 -31.45,-27.86 -32.32,-43.61 -0.86,17.05 9.88,34.34 32.32,47.56 43.51,25.63 114.42,26.26 158.37,1.4 23.04,-13.03 34.08,-30.48 33.12,-47.82 -0.8,16.02 -11.83,31.83 -33.12,43.87z"/>
   <path class="fil15" d="M443.24 324.87l-19.84 0c-1.38,0 -2.51,-1.12 -2.51,-2.51l0 -0.35c0,-1.38 1.12,-2.51 2.51,-2.51l19.84 0c1.38,0 2.51,1.12 2.51,2.51l0 0.35c0,1.38 -1.12,2.51 -2.51,2.51z"/>
   <path class="fil16" d="M443.24 319.5l-19.84 0c-1.38,0 -2.51,1.12 -2.51,2.51l0 0.35c0,0.24 0.07,0.45 0.13,0.67 0.3,-1.05 1.22,-1.84 2.37,-1.84l19.84 0c1.15,0 2.08,0.79 2.37,1.84 0.06,-0.22 0.13,-0.43 0.13,-0.67l0 -0.35c0,-1.39 -1.12,-2.51 -2.51,-2.51z"/>
   <path class="fil1" d="M436.37 500.76c-2.43,9.15 -11.82,14.6 -20.98,12.17 -9.15,-2.43 -14.6,-11.82 -12.17,-20.98 2.43,-9.15 11.07,-11.74 20.22,-9.31 9.15,2.43 15.36,8.97 12.92,18.12z"/>
   <path class="fil1" d="M449.86 482.7c-3.45,3.37 -7.87,2.94 -10.8,-0.06 -2.93,-3 -3.27,-7.42 0.18,-10.8 3.45,-3.37 10.01,-5.04 12.95,-2.04 2.94,3 1.13,9.52 -2.33,12.89z"/>
   <path class="fil1" d="M431.93 468.35c-0.84,4.75 -4.69,6.97 -8.82,6.23 -4.13,-0.73 -6.98,-4.14 -6.13,-8.89 0.84,-4.75 5.22,-9.92 9.35,-9.19 4.13,0.74 6.45,7.1 5.6,11.85z"/>
   <path class="fil1" d="M409.83 466.16c1.84,4.47 -0.22,8.39 -4.1,9.99 -3.88,1.6 -8.11,0.25 -9.94,-4.21 -1.84,-4.46 -0.92,-11.17 2.96,-12.77 3.88,-1.6 9.25,2.53 11.08,6.99z"/>
   <path class="fil17" d="M440.36 322.19c0,0 60.01,-20.11 35.71,-89.06 -24.3,-68.95 -71.6,-89.97 -52.54,-145.12 0,0 -29.87,44.65 -1.96,105.07 27.91,60.41 34.03,53.47 33.7,82.37 -0.39,34.33 -28.12,46.75 -28.12,46.75l13.21 -0 0 -0z"/>
   <path class="fil17" d="M445.75 97.6c0,0 -6.25,-41.25 32.44,-82.81 0,0 -34.21,76.42 -23.02,114.14 -0,-0 -9.05,-23.98 -9.42,-31.34z"/>
  </g>
 </g>
</svg>
