<?xml version="1.0" encoding="UTF-8"?>
<!DOCTYPE svg PUBLIC "-//W3C//DTD SVG 1.1//EN" "http://www.w3.org/Graphics/SVG/1.1/DTD/svg11.dtd">
<!-- Creator: CorelDRAW -->
<svg xmlns="http://www.w3.org/2000/svg" xml:space="preserve" width="94.4275mm" height="51.5499mm" version="1.1" style="shape-rendering:geometricPrecision; text-rendering:geometricPrecision; image-rendering:optimizeQuality; fill-rule:evenodd; clip-rule:evenodd"
viewBox="0 0 4261.38 2326.37"
 xmlns:xlink="http://www.w3.org/1999/xlink"
 xmlns:xodm="http://www.corel.com/coreldraw/odm/2003">
 <defs>
  <style type="text/css">
   <![CDATA[
    .str0 {stroke:#D9E2FC;stroke-width:9.03;stroke-miterlimit:22.9256}
    .fil0 {fill:#D9E2FC;fill-rule:nonzero}
   ]]>
  </style>
 </defs>
 <g id="Camada_x0020_1">
  <metadata id="CorelCorpID_0Corel-Layer"/>
  <g id="_2458192724416">
   <path class="fil0 str0" d="M331.61 1534.56c-23.36,0 -46.71,-6 -67.54,-18.05l-241.21 -139.25c-11.5,-6.64 -18.35,-18.5 -18.35,-31.74 0,-13.24 6.84,-25.09 18.35,-31.74l241.16 -139.25c41.66,-24.05 93.43,-24.05 135.03,0l241.16 139.25c11.5,6.64 18.35,18.5 18.35,31.74 0,13.24 -6.84,25.14 -18.35,31.74l-241.16 139.25c-20.83,12 -44.19,18.05 -67.54,18.05l0.1 0zm0 -355.81c-19.49,0 -39.03,5.01 -56.43,15.08l-241.16 139.25c-6.5,3.77 -7.19,10.02 -7.19,12.5 0,2.53 0.69,8.73 7.24,12.5l241.16 139.25 0 0c34.81,20.08 78.05,20.08 112.87,0l241.16 -139.25c6.5,-3.77 7.19,-10.02 7.19,-12.5 0,-2.53 -0.69,-8.73 -7.19,-12.5l-241.16 -139.25c-17.41,-10.07 -36.95,-15.08 -56.43,-15.08l-0.05 0z"/>
   <path class="fil0 str0" d="M2813.43 2321.76c-20.18,0 -39.47,-4.22 -54.25,-12.69l0 0 -1968.21 -1136.32c-16.07,-9.27 -24.94,-22.66 -24.94,-37.69 0,-17.26 12,-34.07 32.98,-46.17l1341.63 -786.06c36.8,-21.27 90.85,-23.31 123.08,-4.66l1968.21 1136.37c16.07,9.27 24.94,22.66 24.94,37.69 0,17.26 -12,34.07 -32.98,46.17l-1341.63 786.06c-19.93,11.5 -44.98,17.41 -68.83,17.41l0 -0.1zm-603.67 -2014.08c-20.13,0 -41.56,4.86 -57.92,14.28l-1341.63 786.06c-13.74,7.93 -21.92,18 -21.92,26.98 0,8.68 7.49,14.83 13.79,18.45l1968.21 1136.32c0,0 0,0 0,0 25.14,14.53 71.31,12.4 100.77,-4.66l1341.63 -786.06c13.74,-7.93 21.92,-18 21.92,-26.98 0,-8.63 -7.49,-14.78 -13.79,-18.45l-1968.21 -1136.37c-11.21,-6.45 -26.63,-9.62 -42.89,-9.62l0.05 0.05z"/>
   <path class="fil0 str0" d="M1277.55 530.55c-32.24,0 -64.52,-8.28 -93.28,-24.94l0 0 -341.43 -197.12c-14.83,-8.53 -23.66,-23.85 -23.66,-40.96 0,-17.11 8.83,-32.38 23.66,-40.96l341.43 -197.12c57.53,-33.22 129.04,-33.22 186.56,0l341.43 197.12c14.83,8.53 23.66,23.85 23.66,40.96 0,17.11 -8.83,32.38 -23.66,40.96l-341.43 197.12c-28.76,16.61 -61.05,24.94 -93.28,24.94zm-82.17 -44.14c50.68,29.26 113.66,29.26 164.39,0l341.43 -197.12c7.83,-4.51 12.55,-12.65 12.55,-21.67 0,-9.03 -4.71,-17.16 -12.55,-21.67l-341.43 -197.12c-50.73,-29.26 -113.71,-29.26 -164.39,0l-341.43 197.12c-7.83,4.51 -12.55,12.65 -12.55,21.67 0,9.08 4.71,17.16 12.55,21.67l341.43 197.12z"/>
  </g>
 </g>
</svg>
