<?xml version="1.0" encoding="UTF-8"?>
<!DOCTYPE svg PUBLIC "-//W3C//DTD SVG 1.1//EN" "http://www.w3.org/Graphics/SVG/1.1/DTD/svg11.dtd">
<!-- Creator: CorelDRAW -->
<svg xmlns="http://www.w3.org/2000/svg" xml:space="preserve" width="94.4275mm" height="51.5499mm" version="1.1" style="shape-rendering:geometricPrecision; text-rendering:geometricPrecision; image-rendering:optimizeQuality; fill-rule:evenodd; clip-rule:evenodd"
viewBox="0 0 19949.15 10890.65"
 xmlns:xlink="http://www.w3.org/1999/xlink"
 xmlns:xodm="http://www.corel.com/coreldraw/odm/2003">
 <defs>
  <style type="text/css">
   <![CDATA[
    .str0 {stroke:#586887;stroke-width:42.25;stroke-miterlimit:22.9256}
    .fil0 {fill:#586887;fill-rule:nonzero}
   ]]>
  </style>
 </defs>
 <g id="Camada_x0020_1">
  <metadata id="CorelCorpID_0Corel-Layer"/>
  <g id="_2541519441280">
   <path class="fil0 str0" d="M1552.41 7183.85c-109.35,0 -218.68,-28.1 -316.2,-84.51l-1129.19 -651.88c-53.85,-31.1 -85.9,-86.6 -85.9,-148.58 0,-61.98 32.03,-117.46 85.9,-148.58l1128.95 -651.88c195.02,-112.6 437.38,-112.6 632.14,0l1128.95 651.88c53.85,31.1 85.9,86.6 85.9,148.58 0,61.98 -32.03,117.7 -85.9,148.58l-1128.95 651.88c-97.5,56.18 -206.85,84.51 -316.2,84.51l0.49 0zm0 -1665.69c-91.25,0 -182.7,23.45 -264.19,70.58l-1128.95 651.88c-30.42,17.64 -33.65,46.9 -33.65,58.5 0,11.83 3.25,40.86 33.89,58.5l1128.95 651.88 0 0c162.97,94.01 365.4,94.01 528.37,0l1128.95 -651.88c30.42,-17.64 33.65,-46.9 33.65,-58.5 0,-11.83 -3.25,-40.86 -33.65,-58.5l-1128.95 -651.88c-81.48,-47.13 -172.96,-70.58 -264.19,-70.58l-0.23 0z"/>
   <path class="fil0 str0" d="M13170.74 10869.06c-94.48,0 -184.79,-19.73 -253.98,-59.43l0 0 -9213.93 -5319.55c-75.21,-43.41 -116.77,-106.1 -116.77,-176.43 0,-80.79 56.18,-159.48 154.39,-216.14l6280.67 -3679.86c172.26,-99.59 425.3,-109.12 576.2,-21.82l9213.93 5319.78c75.21,43.41 116.77,106.1 116.77,176.43 0,80.79 -56.18,159.48 -154.39,216.14l-6280.67 3679.86c-93.32,53.85 -210.57,81.48 -322.22,81.48l0 -0.46zm-2826 -9428.68c-94.24,0 -194.55,22.75 -271.16,66.87l-6280.67 3679.86c-64.31,37.14 -102.61,84.27 -102.61,126.29 0,40.63 35.05,69.42 64.54,86.36l9213.93 5319.55c0,0 0,0 0,0 117.7,68.03 333.84,58.03 471.73,-21.82l6280.67 -3679.86c64.31,-37.14 102.61,-84.27 102.61,-126.29 0,-40.39 -35.05,-69.19 -64.54,-86.36l-9213.93 -5319.78c-52.46,-30.19 -124.67,-45.04 -200.81,-45.04l0.23 0.23z"/>
   <path class="fil0 str0" d="M5980.72 2483.69c-150.91,0 -302.02,-38.77 -436.68,-116.77l0 0 -1598.38 -922.8c-69.42,-39.93 -110.74,-111.67 -110.74,-191.76 0,-80.09 41.32,-151.6 110.74,-191.76l1598.38 -922.8c269.3,-155.53 604.07,-155.53 873.37,0l1598.38 922.8c69.42,39.93 110.74,111.67 110.74,191.76 0,80.09 -41.32,151.6 -110.74,191.76l-1598.38 922.8c-134.64,77.77 -285.78,116.77 -436.68,116.77zm-384.67 -206.62c237.27,136.96 532.09,136.96 769.59,0l1598.38 -922.8c36.68,-21.13 58.73,-59.2 58.73,-101.45 0,-42.25 -22.06,-80.32 -58.73,-101.45l-1598.38 -922.8c-237.48,-136.96 -532.32,-136.96 -769.59,0l-1598.38 922.8c-36.68,21.13 -58.73,59.2 -58.73,101.45 0,42.49 22.06,80.32 58.73,101.45l1598.38 922.8z"/>
  </g>
 </g>
</svg>
