<?xml version="1.0" encoding="UTF-8"?>
<!DOCTYPE svg PUBLIC "-//W3C//DTD SVG 1.1//EN" "http://www.w3.org/Graphics/SVG/1.1/DTD/svg11.dtd">
<!-- Creator: CorelDRAW (Versão de avaliação) -->
<svg xmlns="http://www.w3.org/2000/svg" xml:space="preserve" width="116.016mm" height="51.3473mm" version="1.1" style="shape-rendering:geometricPrecision; text-rendering:geometricPrecision; image-rendering:optimizeQuality; fill-rule:evenodd; clip-rule:evenodd"
viewBox="0 0 1055.77 467.27"
 xmlns:xlink="http://www.w3.org/1999/xlink"
 xmlns:xodm="http://www.corel.com/coreldraw/odm/2003">
 <defs>
  <style type="text/css">
   <![CDATA[
    .fil2 {fill:url(#id0);fill-rule:nonzero}
    .fil1 {fill:url(#id1);fill-rule:nonzero}
    .fil3 {fill:url(#id2);fill-rule:nonzero}
    .fil4 {fill:url(#id3);fill-rule:nonzero}
    .fil0 {fill:url(#id4);fill-rule:nonzero}
   ]]>
  </style>
  <linearGradient id="id0" gradientUnits="userSpaceOnUse" x1="-0.44" y1="269.64" x2="129.57" y2="269.64">
   <stop offset="0" style="stop-opacity:1; stop-color:#4B75F2"/>
   <stop offset="1" style="stop-opacity:1; stop-color:#1848D9"/>
  </linearGradient>
  <linearGradient id="id1" gradientUnits="userSpaceOnUse" xlink:href="#id0" x1="868.75" y1="226.29" x2="1001.18" y2="226.29">
  </linearGradient>
  <linearGradient id="id2" gradientUnits="userSpaceOnUse" xlink:href="#id0" x1="151.24" y1="262.4" x2="856.72" y2="262.4">
  </linearGradient>
  <linearGradient id="id3" gradientUnits="userSpaceOnUse" xlink:href="#id0" x1="163.28" y1="53.16" x2="348.68" y2="53.16">
  </linearGradient>
  <linearGradient id="id4" gradientUnits="userSpaceOnUse" xlink:href="#id0" x1="977.1" y1="332.03" x2="1054.15" y2="332.03">
  </linearGradient>
 </defs>
 <g id="Camada_x0020_1">
  <metadata id="CorelCorpID_0Corel-Layer"/>
  <path class="fil0" d="M1016.51 356.92c-2.9,0 -5.8,-0.75 -8.38,-2.24l-28.26 -16.31c-1.64,-0.95 -2.62,-2.64 -2.62,-4.53 0,-1.89 0.98,-3.59 2.62,-4.53l28.26 -16.31c5.17,-2.98 11.59,-2.99 16.76,0l28.26 16.31c1.64,0.95 2.62,2.64 2.62,4.53 0,1.89 -0.98,3.59 -2.62,4.53l-28.26 16.31c-2.59,1.49 -5.48,2.24 -8.38,2.24zm0 -41.7c-2.13,0 -4.25,0.55 -6.14,1.64l-28.26 16.31c-0.33,0.19 -0.38,0.49 -0.38,0.65 0,0.16 0.05,0.46 0.38,0.66l28.26 16.31c0,0 0,0 0,0 3.78,2.19 8.49,2.19 12.28,0l28.26 -16.31c0.33,-0.19 0.38,-0.49 0.38,-0.66 0,-0.16 -0.05,-0.46 -0.38,-0.65l-28.26 -16.31c-1.9,-1.1 -4.02,-1.64 -6.14,-1.64z"/>
  <path class="fil1" d="M935.68 264.34c-4.71,0 -9.42,-1.21 -13.62,-3.64l-48.63 -28.08c-2.32,-1.34 -3.7,-3.73 -3.7,-6.4 0,-2.67 1.38,-5.07 3.7,-6.4l48.63 -28.08c8.39,-4.85 18.83,-4.85 27.23,0l48.63 28.08c2.31,1.34 3.7,3.73 3.7,6.4 0,2.67 -1.38,5.07 -3.69,6.4l-48.63 28.08c-4.2,2.43 -8.91,3.64 -13.62,3.64zm-11.38 -7.52c7.02,4.05 15.74,4.05 22.76,0l48.63 -28.08c1.31,-0.76 1.45,-2.02 1.45,-2.52 0,-0.51 -0.14,-1.76 -1.45,-2.52l-48.63 -28.08c-7.02,-4.05 -15.74,-4.05 -22.76,0l-48.63 28.08c-1.31,0.76 -1.46,2.02 -1.46,2.52 0,0.51 0.14,1.76 1.46,2.52l48.63 28.08z"/>
  <path class="fil2" d="M65.95 308.53c-4.71,0 -9.42,-1.21 -13.62,-3.64l-48.64 -28.08c-2.32,-1.34 -3.7,-3.73 -3.7,-6.4 0,-2.67 1.38,-5.06 3.7,-6.4l48.63 -28.08c8.4,-4.85 18.84,-4.85 27.23,0l48.63 28.08c2.32,1.34 3.7,3.73 3.7,6.4 0,2.67 -1.38,5.07 -3.7,6.4l-48.63 28.08c-4.2,2.42 -8.91,3.64 -13.62,3.64zm-0 -71.75c-3.93,0 -7.87,1.01 -11.38,3.04l-48.63 28.08c-1.31,0.76 -1.45,2.02 -1.45,2.52 0,0.51 0.14,1.76 1.46,2.52l48.63 28.08 0 0c7.02,4.05 15.74,4.05 22.76,0l48.63 -28.08c1.31,-0.76 1.45,-2.02 1.45,-2.52 0,-0.51 -0.14,-1.76 -1.45,-2.52l-48.63 -28.08c-3.51,-2.03 -7.45,-3.04 -11.38,-3.04z"/>
  <path class="fil3" d="M566.41 467.27c-4.07,0 -7.96,-0.85 -10.94,-2.56l0 0 -396.89 -229.14c-3.24,-1.87 -5.03,-4.57 -5.03,-7.6 0,-3.48 2.42,-6.87 6.65,-9.31l270.54 -158.51c7.42,-4.29 18.32,-4.7 24.82,-0.94l396.89 229.15c3.24,1.87 5.03,4.57 5.03,7.6 0,3.48 -2.42,6.87 -6.65,9.31l-270.54 158.51c-4.02,2.32 -9.07,3.51 -13.88,3.51zm-121.73 -406.14c-4.06,0 -8.38,0.98 -11.68,2.88l-270.54 158.51c-2.77,1.6 -4.42,3.63 -4.42,5.44 0,1.75 1.51,2.99 2.78,3.72l396.89 229.14c0,0 0,0 0,0 5.07,2.93 14.38,2.5 20.32,-0.94l270.54 -158.51c2.77,-1.6 4.42,-3.63 4.42,-5.44 0,-1.74 -1.51,-2.98 -2.78,-3.72l-396.89 -229.15c-2.26,-1.3 -5.37,-1.94 -8.65,-1.94z"/>
  <path class="fil4" d="M256.7 106.07c-6.5,0 -13.01,-1.67 -18.81,-5.03l0 0 -68.85 -39.75c-2.99,-1.72 -4.77,-4.81 -4.77,-8.26 0,-3.45 1.78,-6.53 4.77,-8.26l68.85 -39.75c11.6,-6.7 26.02,-6.7 37.62,0l68.85 39.75c2.99,1.72 4.77,4.81 4.77,8.26 0,3.45 -1.78,6.53 -4.77,8.26l-68.85 39.75c-5.8,3.35 -12.31,5.03 -18.81,5.03zm-16.57 -8.9c10.22,5.9 22.92,5.9 33.15,0l68.85 -39.75c1.58,-0.91 2.53,-2.55 2.53,-4.37 0,-1.82 -0.95,-3.46 -2.53,-4.37l-68.85 -39.75c-10.23,-5.9 -22.93,-5.9 -33.15,0l-68.85 39.75c-1.58,0.91 -2.53,2.55 -2.53,4.37 0,1.83 0.95,3.46 2.53,4.37l68.85 39.75z"/>
 </g>
</svg>
